<svg id="Group_10318" data-name="Group 10318" xmlns="http://www.w3.org/2000/svg" width="32.18" height="32.3" viewBox="0 0 32.18 32.3">
  <rect id="Area_SIZE:MEDIUM_STATE:DEFAULT_STYLE:STYLE3_" data-name="Area [SIZE:MEDIUM][STATE:DEFAULT][STYLE:STYLE3]" width="32.18" height="32.3" rx="9" fill="#131f8a"/>
  <g id="vuesax_twotone_call-calling" data-name="vuesax/twotone/call-calling" transform="translate(4 4)">
    <g id="call-calling">
      <path id="Vector" d="M19.97,16.33a2.545,2.545,0,0,1-.25,1.09,4.126,4.126,0,0,1-.68,1.02,4.508,4.508,0,0,1-1.64,1.18,5.022,5.022,0,0,1-1.95.38,8.334,8.334,0,0,1-3.26-.73,17.564,17.564,0,0,1-3.44-1.98,28.75,28.75,0,0,1-3.28-2.8,28.414,28.414,0,0,1-2.79-3.27A17.828,17.828,0,0,1,.72,7.81,8.423,8.423,0,0,1,0,4.54,5.173,5.173,0,0,1,.36,2.61,4.6,4.6,0,0,1,1.51.94,2.93,2.93,0,0,1,3.59,0,1.879,1.879,0,0,1,4.4.18a1.63,1.63,0,0,1,.67.56L7.39,4.01a3.422,3.422,0,0,1,.4.7,1.581,1.581,0,0,1,.14.61,1.357,1.357,0,0,1-.21.71,3.4,3.4,0,0,1-.56.71l-.76.79a.535.535,0,0,0-.16.4.908.908,0,0,0,.03.23c.03.08.06.14.08.2a8.3,8.3,0,0,0,.93,1.28c.45.52.93,1.05,1.45,1.58.54.53,1.06,1.02,1.59,1.47a7.675,7.675,0,0,0,1.29.92c.05.02.11.05.18.08a.69.69,0,0,0,.25.04.55.55,0,0,0,.41-.17l.76-.75a3.068,3.068,0,0,1,.72-.56,1.332,1.332,0,0,1,.71-.21,1.6,1.6,0,0,1,.61.13,3.868,3.868,0,0,1,.7.39l3.31,2.35a1.517,1.517,0,0,1,.55.64A2.052,2.052,0,0,1,19.97,16.33Z" transform="translate(2 2)" fill="none" stroke="#fff" stroke-width="1.5"/>
      <path id="Vector-2" data-name="Vector" d="M3.5,3.5A3.965,3.965,0,0,0,2.33,1.23,3.416,3.416,0,0,0,0,0" transform="translate(15 5.5)" fill="none" stroke="#fff" stroke-linecap="round" stroke-linejoin="round" stroke-width="1.5" opacity="0.4"/>
      <path id="Vector-3" data-name="Vector" d="M7,7A7,7,0,0,0,0,0" transform="translate(15 2)" fill="none" stroke="#fff" stroke-linecap="round" stroke-linejoin="round" stroke-width="1.5" opacity="0.4"/>
      <path id="Vector-4" data-name="Vector" d="M0,0H24V24H0Z" fill="none" opacity="0"/>
    </g>
  </g>
</svg>
