<svg xmlns="http://www.w3.org/2000/svg" width="339.08" height="330" viewBox="0 0 339.08 330">
  <g id="Group_14876" data-name="Group 14876" opacity="0.3">
    <path id="Path_57" data-name="Path 57" d="M124.688.656a1.129,1.129,0,0,0-1.474-.563,1.127,1.127,0,0,0-.561,1.474c36.628,81.656,24.279,175.11-32.076,244.272-.053.066-.119.133-.175.2l-.013.013c0,.013-.013.013-.013.027l-.013.013c-.013.013-.013.027-.027.04a.013.013,0,0,1-.013.013,1.347,1.347,0,0,1-.135.148.013.013,0,0,1-.013.013c0,.013,0,.013-.013.027v.013c-.013.013-.013.027-.027.027s-.026.027-.026.04h-.013v.013l-.053.055c-.028.04-.055.066-.082.106h-.013c-.066.108-.161.2-.241.309l-.576.04h-.053v1.111a1.1,1.1,0,0,0,1.111,1.1.775.775,0,0,0,.175-.013l.9-.04h.095v-.711c.093-.106.186-.228.281-.334,0-.013,0-.013.027-.027v-.013c.857-1.045,1.714-2.1,2.545-3.162a.926.926,0,0,0,.106-.133c.04-.055.095-.108.135-.161a2.346,2.346,0,0,1,.188-.241c.066-.095.146-.188.214-.283l.32-.4c.148-.188.283-.362.415-.55l.013-.013.04-.04c.214-.283.442-.563.656-.844.415-.537.831-1.085,1.246-1.635l.013-.013c.764-1.03,1.54-2.048,2.3-3.093q3.556-4.862,6.843-9.87a235.444,235.444,0,0,0,36.871-99.937A237.468,237.468,0,0,0,124.688.656" transform="translate(79.861 0)" fill="#5acccc"/>
    <path id="Path_58" data-name="Path 58" d="M218.907,30.274a292.239,292.239,0,0,1-42.684,107.745,290.058,290.058,0,0,1-49.485,57.911q-7.314,6.589-15.108,12.669-2.711,2.151-5.5,4.2c-.871.67-1.754,1.312-2.638,1.955-.537.4-1.087.791-1.635,1.193-.362.254-.736.522-1.1.776q-.4.3-.8.563c-1.807,1.3-3.641,2.558-5.5,3.818-.616.413-1.233.829-1.862,1.244-.04.027-.093.055-.133.082l-.027.027a1.605,1.605,0,0,0-.2.133.256.256,0,0,0-.082.055c-.027.013-.04.027-.066.04l-.027.442v.106l-.6.027-.161.188-.119.148-.04.04c-.013.013-.028.027-.028.04l-.026.027-.04.042a.811.811,0,0,1-.174.133c-.013,0-.013.013-.026,0l-.027.027h-.013c-.013.013-.026.028-.04.028a1.156,1.156,0,0,1-.468.106,1.06,1.06,0,0,1-.7-.254,1.085,1.085,0,0,1-.175-1.527c0-.013,0-.013.013-.026v-.013l-.026-.027-.108-.108-.133-.121-.685-.683-.106-.093-.175-.174h1.635v-.6l.175-.053.588-.214.148.161.148.148v.013l.159.159.053.055c.028-.013.042-.028.068-.042v-.013c.508-.334,1.018-.67,1.527-1.017.026,0,.04-.028.066-.042a.314.314,0,0,0,.082-.053,2.758,2.758,0,0,0,.254-.174c.093-.053.188-.119.281-.186.227-.148.455-.3.669-.457.709-.482,1.42-.963,2.13-1.458.08-.055.175-.108.254-.174.9-.616,1.794-1.246,2.678-1.876,1.8-1.273,3.55-2.557,5.3-3.856q7.712-5.727,14.986-11.907c51.04-43.353,85.165-102.4,97.312-169.553a1.116,1.116,0,1,1,2.2.4" transform="translate(79.069 25.962)" fill="#5acccc"/>
    <path id="Path_59" data-name="Path 59" d="M154.5,5.517a1.189,1.189,0,0,0-1.46-.844,1.2,1.2,0,0,0-.844,1.46A247.625,247.625,0,0,1,107.14,223.418a241.43,241.43,0,0,1-15.978,18.214,3.216,3.216,0,0,1-.228.228.047.047,0,0,1-.013.027l-.013.013-.013.027h-.013l-.013.013a.013.013,0,0,1-.013.013l-.135.135-.027.027-.013.013v.013c-.013.013-.04.027-.053.042a.225.225,0,0,1-.08.08.013.013,0,0,1-.013.013l-.055.053c-.026.04-.066.066-.093.108h-.013c-.068.08-.135.146-.214.228l-.429.027h-.013l-.2.013h-.081v.013l-.067.106-.026.042h-.08v.093l-.027.643c-.042.04-.095.095-.135.135l-.04.04-.121.119-.026.029a1.192,1.192,0,0,0,.87,2.008,1.127,1.127,0,0,0,.617-.174l.04-.04c.013,0,.027-.013.04-.013l.013-.013H90.5c.028-.027.042-.04.068-.068l.04-.04.04-.027.108-.106a2.151,2.151,0,0,1,.173-.188l.711-.013.146-.228h.081v-.711l.2-.2c.013-.013.027-.027.027-.04,1.191-1.2,2.371-2.437,3.522-3.67a2.382,2.382,0,0,0,.174-.2,1.765,1.765,0,0,0,.227-.241,2.6,2.6,0,0,0,.321-.347c.148-.148.3-.3.415-.442.214-.214.415-.442.616-.656.294-.322.6-.643.884-.979.174-.174.336-.347.5-.535.322-.362.656-.725.992-1.1q1.588-1.769,3.133-3.577c.013,0,.013-.013.027-.04q4.481-5.183,8.626-10.594a248.077,248.077,0,0,0,43.822-90.12A250.282,250.282,0,0,0,154.5,5.517" transform="translate(79.422 4.152)" fill="#54bcc6"/>
    <path id="Path_60" data-name="Path 60" d="M180.476,12.666a1.28,1.28,0,0,0-2.545.267,260.278,260.278,0,0,1-66.294,202.58q-5.423,5.946-11.235,11.6c-2.907,2.813-5.894,5.585-8.961,8.277a2.711,2.711,0,0,1-.294.256l-.013.013-.027.027c-.013.013-.013.027-.028.04s-.011,0-.027.013h-.013l-.013.013a.047.047,0,0,1-.013.027c-.013.013-.013.013-.026.013a.362.362,0,0,1-.106.095.693.693,0,0,1-.095.08c-.013.013-.04.027-.053.04a.25.25,0,0,1-.08.082.013.013,0,0,1-.013.013l-.055.053a.929.929,0,0,1-.133.106c-.055.055-.108.095-.161.148l-.389.066h-.013l-.268.055h-.04l-.042.013-.254.04-.013.066-.013.2-.053.4-.013.106-.027.028-.254.214-.015.013a1.272,1.272,0,0,0,.844,2.223,1.4,1.4,0,0,0,.656-.174c.042-.027.068-.053.108-.08v-.013c.013,0,.027-.013.04-.028.013,0,.027-.013.04-.013l.013-.013h.013c.029-.027.042-.04.068-.066l.04-.04.04-.027.108-.108h.013l.04-.04.831-.053h.013l.214-.254h.08v-.7c.04-.04.08-.066.121-.106.013,0,.013-.013.027-.027.04-.04.093-.068.133-.108q2.353-2.068,4.649-4.165c.106-.106.214-.2.307-.294.135-.121.267-.241.389-.362.2-.175.4-.349.59-.535.241-.228.5-.455.736-.7.389-.347.764-.709,1.138-1.072.013-.013.013-.013.027-.013.616-.588,1.259-1.191,1.862-1.807a.181.181,0,0,1,.053-.04c.7-.67,1.394-1.339,2.077-2.035q.8-.765,1.567-1.568c.013-.013.013-.013.026-.013q5.727-5.764,11.076-11.851a.562.562,0,0,0,.121-.121A262.932,262.932,0,0,0,180.476,12.666" transform="translate(79.317 10.33)" fill="#4dadc0"/>
    <path id="Path_61" data-name="Path 61" d="M89.7,232.451A1.354,1.354,0,0,1,88.9,230l.252-.188v-.679l.161,0,.013-.12h.133l.028-.119.908-.04A273.777,273.777,0,0,0,199.362,21.145a1.37,1.37,0,0,1,1.411-1.3,1.355,1.355,0,0,1,1.3,1.411A276.471,276.471,0,0,1,92.25,230.852v.687l-.082,0v.08h-.133v.093l-.175,0v.12l-.9.009c-.154.118-.307.23-.459.343a1.362,1.362,0,0,1-.8.264" transform="translate(79.208 17.795)" fill="#479dba"/>
    <path id="Path_62" data-name="Path 62" d="M218.026,28.807a1.454,1.454,0,0,0-1.675,1.164C204.5,95.49,171.7,153.306,122.643,196.31a.359.359,0,0,0-.08.066q-8.017,7.032-16.595,13.528c-.013,0-.013,0-.027.013q-2.913,2.188-5.879,4.326-1.508,1.064-3.014,2.13c-1.633,1.138-3.294,2.276-4.956,3.387-.133.08-.254.174-.389.254a.177.177,0,0,0-.066.04.161.161,0,0,1-.066.042l-.013.027c-.013,0-.013.013-.027.013a.055.055,0,0,0-.042.013v.013c-.013.013-.013.013-.027.013l-.026.027h-.013c-.027.013-.04.026-.066.04l-.013.013c-.013,0-.013,0-.027.013-.108.082-.214.148-.322.214-.013.013-.04.028-.053.042s-.013.013-.027.013-.013.027-.026.027-.04.013-.055.027a.8.8,0,0,1-.133.093l-.026-.027-.013-.013-.095.066-.093.068H90.46v.013l-.04.027h-.042l-.508.053h-.053l-.027.013-.2.013-.108.013-.106.013h-.026v.243l-.015.414a.251.251,0,0,1-.08.055c-.04.027-.093.053-.133.08l-.243.161-.013.013a1.438,1.438,0,0,0-.387,2,1.4,1.4,0,0,0,1.191.63,1.382,1.382,0,0,0,.723-.188l.028.027.026.013.04.042.08.066.026.027.042-.04.119-.121.161-.161.119-.119.243-.241.173-.013h.135l.053-.013.053-.013.269-.028.334-.027.013-.2.04-.495c.013-.013.027-.013.042-.027s.013-.013.027-.013c2.892-1.929,5.758-3.884,8.571-5.893.3-.214.59-.415.884-.63.4-.294.8-.577,1.193-.871.643-.455,1.286-.924,1.916-1.392,1-.738,2-1.487,2.972-2.238q3.115-2.35,6.162-4.781,8.617-6.89,16.659-14.383c.013,0,.013-.013.027-.027a289.777,289.777,0,0,0,45.657-54.429A292.693,292.693,0,0,0,219.191,30.482a1.459,1.459,0,0,0-1.164-1.675" transform="translate(79.106 25.808)" fill="#408db4"/>
    <path id="Path_63" data-name="Path 63" d="M90.369,215.769a1.524,1.524,0,0,1-1.525-1.519,1.382,1.382,0,0,1,.021-.252v-.635l.67-.387a1.233,1.233,0,0,1,.129-.076A306.9,306.9,0,0,0,228.7,38.806a1.519,1.519,0,0,1,2.9.908,309.907,309.907,0,0,1-139.7,175.4v.645Z" transform="translate(79.653 33.836)" fill="#3a7dae"/>
    <path id="Path_64" data-name="Path 64" d="M90,133.342l-.728-.723a1.515,1.515,0,0,1-.433-1.275v-1.318h1.286a1.542,1.542,0,0,1,1.764,1.491v1.532l-1.21.011Z" transform="translate(79.638 116.557)" fill="#3a7dae"/>
    <path id="Path_65" data-name="Path 65" d="M89.633,133.848a1.519,1.519,0,0,1-.747-2.843c.061-.032.119-.066.178-.1v-.656h.3l.013-.161,1.455-.064a1.489,1.489,0,0,1,.628.064h.927l.008.863a1.531,1.531,0,0,1,.114.575l-.015,1.532-.389.057v.171l-1.125.019c-.2.118-.394.233-.6.349a1.508,1.508,0,0,1-.743.2" transform="translate(78.998 116.563)" fill="#3a7dae"/>
    <path id="Path_66" data-name="Path 66" d="M242.229,48.549a329.245,329.245,0,0,1-96.362,124.727q-10.625,8.438-21.964,16.018-4.179,2.794-8.451,5.451c-1.419.9-2.839,1.768-4.271,2.638-.939.563-1.876,1.125-2.812,1.675a.041.041,0,0,0-.026.013q-7.513,4.441-15.269,8.464l-.04.482-.013.148v.027h-.08l-.415.027H92.5l-.6.04-.148.082h-.013l-.2.133h-.254c-.106.053-.214.108-.321.175a.146.146,0,0,0-.068.027l-.241.121a1.6,1.6,0,0,1-1.86-2.559l-.135-.135L88.532,206l-.12-.121-.121-.106-.656.831c.135-.082.831-1.1.992-1.153.08-.027.148-.04.214-.066l.066-.026.121-.04.08-.026.066-.028v-.08h.243l.2-.066V205h.3l.281-.093H89.9l.307-.013h.014l.108-.121v.082l.174-.055.588-.214.323-.119.053-.013.04-.013.066-.027h.015l.146.146h.013v.013l.027.026.082-.04c.013,0,.013-.013.027-.013l.013-.013.08-.04a.013.013,0,0,0,.013-.013.074.074,0,0,0,.042-.027h.013c.027-.013.04-.027.066-.04h.013l.013-.015a.048.048,0,0,0,.04-.013.1.1,0,0,0,.053-.027.051.051,0,0,0,.042-.013.1.1,0,0,0,.053-.027.121.121,0,0,0,.093-.04c.725-.389,1.42-.764,2.13-1.138.643-.349,1.286-.683,1.916-1.032l1.768-.963c.9-.5,1.781-.979,2.665-1.474.013-.013.013-.013.026-.013,1.529-.87,3.027-1.741,4.54-2.625h.015q3.354-1.949,6.655-3.992c.844-.508,1.675-1.032,2.519-1.567q12.8-8.036,24.776-17.249c.013-.013.013-.013.027-.013A326.007,326.007,0,0,0,239.31,47.263a1.595,1.595,0,1,1,2.919,1.286" transform="translate(78.569 41.516)" fill="#336ea8"/>
    <path id="Path_67" data-name="Path 67" d="M92.314,201.314v-.161h.55v-.6q10.947-5.081,21.427-10.846,2.774-1.508,5.506-3.082c3.482-2,6.909-4.043,10.312-6.147q14.344-8.879,27.669-19.072a345.22,345.22,0,0,0,91.072-104.61,1.68,1.68,0,0,0-2.921-1.661,341.355,341.355,0,0,1-100.27,111q-13.1,9.26-27.121,17.33a.013.013,0,0,0-.013.013c-.013.013-.027.013-.042.026s-.013.013-.026.013c-3.347,1.916-6.75,3.791-10.179,5.6-.614.347-1.244.67-1.861.99-1.219.643-2.437,1.273-3.67,1.9a.013.013,0,0,0-.013.013c-.013,0-.013.013-.027.013-1.045.523-2.1,1.045-3.161,1.567-.709.362-1.432.711-2.143,1.058-.5.241-.977.483-1.472.711-.751.374-1.514.736-2.265,1.085-.482.228-.977.455-1.46.683a.121.121,0,0,1-.093.04.1.1,0,0,1-.053.026.049.049,0,0,1-.04.013.106.106,0,0,1-.055.026.049.049,0,0,1-.04.013l-.013.013h-.027c-.013,0-.013.013-.026.013v.015c-.013,0-.013.013-.026.013h-.013c-.013.013-.013.013-.026.013l-.013.013-.015.013h-.013c-.026.013-.04.027-.066.04l-.013.013c-.013,0-.013,0-.027.013a.266.266,0,0,0-.095.027c-.013.013-.013.013-.027.013l-.08.04-.027-.026-.026-.027-.135-.133-.053.013-.323.12-.588.214-.175.053v-.08l-.108.121H90l-.307.013h.294l-.281.093h-.294v.174h-.442v.08l-.013.121v.08l-.015.349c-.013.013-.04.013-.066.026a1.8,1.8,0,0,0-.429.267,1.691,1.691,0,0,0,1.111,2.961,1.66,1.66,0,0,0,.669-.148c.188-.08.376-.161.55-.254a1.528,1.528,0,0,0,.228-.108h.228l.161.082.08.04.026.013.188-.053h.053l.013-.013.042-.068h.173Z" transform="translate(78.78 48.663)" fill="#2d5ea2"/>
    <path id="Path_68" data-name="Path 68" d="M92.42,194.813l.241-.08.254-.068.04-.013v-.442h.015q15.908-6.628,31.016-14.651,6.207-3.274,12.255-6.8a357.621,357.621,0,0,0,31.942-20.811A364.51,364.51,0,0,0,253.656,64.3a1.761,1.761,0,0,0-2.892-2.008,361.055,361.055,0,0,1-92.88,92.61A352.079,352.079,0,0,1,123.8,175.648q-5.946,3.195-12.026,6.16c-.013,0-.027.013-.04.013-2.09,1.045-4.2,2.05-6.321,3.027-.51.241-1.018.482-1.527.709-.818.389-1.635.751-2.452,1.113-.842.387-1.673.762-2.517,1.125-.6.281-1.219.548-1.821.8-.429.188-.844.376-1.273.55-.778.349-1.553.67-2.331.99-.389.174-.778.349-1.18.5a.121.121,0,0,1-.093.04.1.1,0,0,1-.053.027.048.048,0,0,1-.04.013.106.106,0,0,1-.055.026.049.049,0,0,1-.04.013h-.013v.013h-.026c-.013,0-.013.013-.027.013a.045.045,0,0,0-.04.015v.013c-.013.013-.013.013-.026.013l-.013.013-.015.013h-.013a.257.257,0,0,0-.133.04c-.013,0-.013,0-.026.013h-.013l-.013.013h-.028v.013h-.027a.013.013,0,0,1-.013.013.189.189,0,0,1-.08.027.013.013,0,0,1-.013.013c-.122.055-.228.095-.349.148-.093.04-.2.08-.294.121h-.643l-.135.013-.281.093h-.294v.108l-.2.066h-.241v.08l-.068.027-.013.108v.066l-.027.228a.639.639,0,0,1-.093.04c-.013.013-.042.013-.055.028a1.405,1.405,0,0,0-.387.241,1.75,1.75,0,0,0-.537,2.075,1.774,1.774,0,0,0,1.621,1.072,1.839,1.839,0,0,0,.7-.148l.119-.053.013.013.577-.254.174-.066h.749l.013-.013.214-.068Z" transform="translate(78.673 55.164)" fill="#264e9c"/>
    <path id="Path_69" data-name="Path 69" d="M256.886,71.073a384.561,384.561,0,0,1-77.719,72.094,379.776,379.776,0,0,1-37.059,22.941A385.877,385.877,0,0,1,93.079,188.5s0,.013-.013,0a.046.046,0,0,1-.026.013c-.013.013-.027.013-.055.027h-.027c-.013.013-.026.027-.04.027h-.013a.049.049,0,0,1-.04.013c-.04.013-.066.027-.108.04a1.785,1.785,0,0,1-.228.095H92.5a.776.776,0,0,1-.161.066l-.08.04-.521.307-.055.042-.08.04-.429.04h-.027l-.04.013-.683.281-.042-.04c-.093.04-.2.068-.294.108a2,2,0,0,1-.616.106,1.838,1.838,0,0,1-1.741-1.231,1.82,1.82,0,0,1,.683-2.117,1.417,1.417,0,0,1,.442-.241h.013c.055-.013.095-.04.148-.055l.013-.12v-.148l.082-.026.066-.027v-.08h.241l.2-.068V185.5h.683l.027-.026.068-.082.106-.093.59-.214.32-.121.053-.013.042-.013.066-.026.106.121.013.013.028.027.013-.013h.013c.013,0,.026-.013.04-.013h.013c.013-.013.013-.013.027-.013.053-.026.121-.042.175-.068.013,0,.027-.013.04-.013l.082-.04a2.486,2.486,0,0,0,.413-.161c.026,0,.04,0,.055-.013.254-.093.508-.188.749-.281.8-.307,1.606-.6,2.4-.924.389-.135.764-.3,1.138-.442.524-.2,1.032-.4,1.555-.616.709-.267,1.405-.55,2.1-.844.6-.228,1.22-.482,1.823-.736.413-.161.829-.336,1.244-.51,1.5-.616,3.014-1.246,4.514-1.9,2.464-1.043,4.9-2.128,7.34-3.239q7.513-3.4,14.865-7.125a379.392,379.392,0,0,0,37.969-22.032,381.29,381.29,0,0,0,85.728-77.343,1.847,1.847,0,1,1,2.866,2.331" transform="translate(78.564 61.02)" fill="#203e96"/>
    <path id="Path_70" data-name="Path 70" d="M258.915,77.155A404.519,404.519,0,0,1,188.4,136.593a408.634,408.634,0,0,1-95.222,46.82h-.013a.049.049,0,0,1-.04.013.2.2,0,0,1-.082.027.928.928,0,0,1-.173.068v.119l-.243.082-.347.093-.214.066-.013.013H92l-.186.055-.108.027-.389.119h-.053l-.119.055-.685.2-.013-.013a4.418,4.418,0,0,1-.429.135,1.725,1.725,0,0,1-.575.093,1.922,1.922,0,0,1-1.045-3.535,1.4,1.4,0,0,1,.469-.228h.013c.055-.013.08-.04.135-.053v-.135l.12-.04.081-.026.066-.026v-.082h.241l.2-.066v-.106h.294l.283-.095H90l.309-.013h.013l.106-.12v.08l.174-.053.59-.214.32-.121.135.135c.013,0,.04-.013.053-.013a.1.1,0,0,1,.053-.013l.013-.013c.015,0,.015,0,.028-.013h.027a.045.045,0,0,1,.04-.015l.013-.013a.19.19,0,0,1,.08-.027.049.049,0,0,0,.04-.013c.042-.013.095-.026.135-.04a.048.048,0,0,1,.04-.013c.013,0,.013-.013.029-.013h.027v-.013h.013a.049.049,0,0,0,.04-.013.1.1,0,0,0,.053-.026.048.048,0,0,0,.04-.013.113.113,0,0,0,.055-.026,1.142,1.142,0,0,0,.212-.068c.028,0,.042,0,.055-.013.228-.066.455-.148.669-.228.791-.267,1.567-.535,2.344-.817.347-.106.7-.228,1.043-.36.47-.161.926-.322,1.394-.5.6-.214,1.2-.428,1.807-.656h.013c.469-.159.926-.334,1.394-.508.387-.135.763-.267,1.151-.415,1.178-.442,2.357-.884,3.522-1.339l.013-.013c.013,0,.027-.013.04-.013,1.741-.643,3.469-1.3,5.2-2.008q4.441-1.75,8.827-3.617,8.256-3.5,16.339-7.366a405.051,405.051,0,0,0,42.816-23.731A401.53,401.53,0,0,0,256.1,74.5a1.933,1.933,0,1,1,2.813,2.651" transform="translate(78.464 66.255)" fill="#192f90"/>
    <path id="Path_71" data-name="Path 71" d="M259.974,82.586a424.293,424.293,0,0,1-166.58,96.24l-.214.066h-.013l-.04.013-.254.068-.243.08-.347.095-.214.066-.013.013H92l-.188.053-.108.027-.389.121-.173.053-.683.2-.444.121a1.728,1.728,0,0,1-.575.093,1.922,1.922,0,0,1-1.045-3.535l-.656.831c.135-.082.831-1.1.992-1.153.08-.027.146-.04.214-.066l.066-.027.12-.04.081-.029.066-.027v-.08h.241l.2-.066V175.6h.294l.283-.093H90l.309-.013h.013l.106-.121v.082l.174-.055.59-.214.32-.12.055-.013.04-.013.106.106a.126.126,0,0,1,.068-.013l.013-.013c.027-.013.066-.013.093-.026s.067-.013.095-.027L92,175.05a.049.049,0,0,0,.04-.013h.013a.813.813,0,0,0,.161-.055.121.121,0,0,0,.066-.013c.026,0,.04-.013.053-.013a.049.049,0,0,0,.04-.013.105.105,0,0,0,.055-.027,1.043,1.043,0,0,0,.214-.066c.027,0,.04,0,.053-.013.2-.055.4-.122.6-.188.013,0,.027-.013.04-.013.762-.228,1.513-.455,2.263-.709.322-.095.656-.188.979-.3.428-.133.844-.267,1.259-.4.535-.174,1.072-.347,1.606-.535h.013c.376-.108.736-.228,1.1-.362.362-.106.722-.228,1.071-.347.95-.309,1.9-.629,2.839-.952q2.008-.683,3.977-1.366a.041.041,0,0,1,.026-.013c2.05-.725,4.1-1.447,6.135-2.21q4.819-1.749,9.589-3.643,9.12-3.6,18.013-7.594a415.2,415.2,0,0,0,46.19-24.282,421.386,421.386,0,0,0,68.839-52.286,2.01,2.01,0,0,1,2.733,2.947" transform="translate(78.464 70.921)" fill="#131f8a"/>
    <path id="Path_72" data-name="Path 72" d="M92.4,129.419c-.066.026-.188.106-.375.188-.013.013-.027.026-.04.026-.093.053-.2.093-.307.161-.095.04-.188.08-.3.133h-.013c-.013.013-.027.013-.053.026l-.027.029a.184.184,0,0,0-.08.026l-.013.013a.05.05,0,0,0-.042.013h-.026c-.013.013-.013.013-.027.013l-.013.013a.08.08,0,0,1-.053.013,2.2,2.2,0,0,1-.362.161,3.658,3.658,0,0,1-.349.146c-.159.068-.321.121-.482.174a.188.188,0,0,1-.08.027v.013h-.04c-.055.028-.108.042-.161.068a.334.334,0,0,0-.108.027c-.04.013-.066.013-.106.026-.013,0-.013.013-.027.013a.259.259,0,0,0-.095.026.564.564,0,0,1-.146.027.6.6,0,0,1-.148.026,1.469,1.469,0,0,1-.334.055.154.154,0,0,1-.068.013h-.066a.382.382,0,0,1-.121-.013h-.066l.066-.026.121-.042.08-.026.066-.026.444-.148.294-.106.281-.095.013-.013h.013l.108-.04.175-.053.588-.214.322-.121.053-.013.04-.013L91,129.9h.013l.281-.093.148-.053.172-.068.135-.04.307-.106.243-.095Z" transform="translate(79.14 116.031)" fill="#131f8a"/>
    <path id="Path_73" data-name="Path 73" d="M80.331,291.066a1.115,1.115,0,1,0,2.039-.9C46.013,208.384,58.672,114.971,115.261,46c.053-.066.12-.133.175-.2l.013-.013c0-.013.013-.013.013-.027l.013-.013c.013-.013.013-.027.027-.04a.013.013,0,0,1,.013-.013,1.569,1.569,0,0,1,.135-.146.013.013,0,0,1,.013-.013c0-.013,0-.013.013-.028v-.013c.013-.013.013-.027.027-.027s.029-.027.029-.04h.013v-.013l.053-.053c.027-.04.053-.066.082-.106h.013c.066-.108.161-.2.241-.307l.576-.038h.053l0-1.113a1.1,1.1,0,0,0-1.108-1.1.679.679,0,0,0-.174.011l-.9.038H114.5l0,.709c-.093.106-.188.228-.281.334,0,.013,0,.013-.029.027v.013c-.859,1.041-1.72,2.1-2.555,3.152a.985.985,0,0,0-.108.135c-.04.053-.093.106-.135.159a2.961,2.961,0,0,1-.188.241c-.066.093-.148.188-.214.281l-.324.4c-.148.188-.283.36-.415.548l-.013.013-.042.04c-.214.281-.444.561-.658.842-.417.535-.835,1.081-1.252,1.629l-.013.013c-.766,1.03-1.548,2.044-2.314,3.086q-3.573,4.85-6.877,9.849A236.932,236.932,0,0,0,80.331,291.066" transform="translate(53.693 38.276)" fill="#5acccc"/>
    <path id="Path_74" data-name="Path 74" d="M21.511,235.577A292.547,292.547,0,0,1,114.234,70.23q7.334-6.566,15.15-12.62,2.717-2.139,5.517-4.186c.872-.668,1.76-1.307,2.646-1.948.537-.4,1.087-.785,1.639-1.185l1.1-.774c.269-.2.537-.387.806-.559,1.811-1.293,3.651-2.545,5.517-3.8.616-.413,1.235-.827,1.864-1.238.042-.027.095-.053.135-.08l.027-.028a1.6,1.6,0,0,0,.2-.133.264.264,0,0,0,.082-.053c.027-.013.04-.027.066-.04l.028-.442v-.106l.6-.025.161-.188.121-.148.04-.04c.015-.013.028-.027.028-.04l.027-.027.04-.04a.868.868,0,0,1,.175-.133c.013,0,.013-.013.027,0l.027-.027h.013c.015-.013.029-.027.042-.027a1.143,1.143,0,0,1,.468-.106,1.066,1.066,0,0,1,.7.256,1.09,1.09,0,0,1,.169,1.529c0,.013,0,.013-.013.027v.013l.027.027.106.108.135.121.679.685.108.093.173.176-1.633-.006,0,.6-.175.053-.59.212-.148-.161-.146-.148v-.013l-.159-.161-.055-.053c-.027.013-.04.027-.066.04v.013c-.51.334-1.02.666-1.531,1.013-.027,0-.04.027-.066.04a.286.286,0,0,0-.082.053,2.529,2.529,0,0,0-.254.174c-.095.053-.188.119-.283.186-.228.146-.455.294-.671.453-.711.48-1.422.96-2.134,1.453a2.893,2.893,0,0,0-.256.173c-.9.614-1.8,1.24-2.684,1.866-1.8,1.267-3.558,2.547-5.316,3.84q-7.735,5.7-15.026,11.855C70.4,109.942,36.079,168.876,23.708,235.987a1.117,1.117,0,0,1-2.2-.41" transform="translate(19.271 37.871)" fill="#5acccc"/>
    <path id="Path_75" data-name="Path 75" d="M59.114,282.4a1.188,1.188,0,0,0,1.457.848,1.2,1.2,0,0,0,.85-1.456A247.628,247.628,0,0,1,107.2,64.654a241.54,241.54,0,0,1,16.037-18.161c.082-.08.148-.159.228-.226a.058.058,0,0,1,.015-.028l.013-.013.013-.027h.013l.013-.013a.013.013,0,0,1,.013-.013l.135-.133.027-.027L123.72,46v-.013c.013-.013.042-.027.053-.04a.237.237,0,0,1,.082-.082.013.013,0,0,1,.013-.013l.053-.053c.028-.04.068-.066.095-.106h.013c.068-.08.135-.148.216-.228l.429-.025h.013l.2-.013h.08v-.013l.068-.106.027-.04h.08v-.095l.028-.641.135-.135.042-.04.12-.12.027-.027a1.192,1.192,0,0,0-.863-2.012,1.108,1.108,0,0,0-.616.173l-.04.04c-.013,0-.028.013-.042.013l-.013.013h-.013l-.066.066-.04.04-.042.027-.106.106a2.133,2.133,0,0,1-.176.188l-.709.011-.148.226h-.08l0,.711-.2.2c-.013.013-.027.027-.027.04-1.195,1.2-2.378,2.429-3.535,3.658a2.412,2.412,0,0,0-.174.2,1.884,1.884,0,0,0-.228.239,2.613,2.613,0,0,0-.322.347c-.148.148-.3.294-.417.442-.214.212-.417.44-.618.654-.3.321-.6.639-.888.975-.174.173-.336.347-.5.533-.323.36-.658.721-.994,1.094q-1.593,1.764-3.146,3.566c-.013,0-.013.013-.027.042q-4.5,5.166-8.662,10.564A248.54,248.54,0,0,0,59.114,282.4" transform="translate(45.57 37.834)" fill="#54bcc6"/>
    <path id="Path_76" data-name="Path 76" d="M42.226,269.021a1.279,1.279,0,1,0,2.545-.26A260.283,260.283,0,0,1,111.742,66.405q5.445-5.929,11.275-11.561c2.917-2.8,5.911-5.565,8.988-8.246a3.139,3.139,0,0,1,.294-.254l.015-.013.027-.027c.013-.013.013-.027.026-.04s.013,0,.027-.013h.013l.013-.013a.046.046,0,0,1,.013-.026c.013-.013.013-.013.027-.013a.39.39,0,0,1,.108-.093.528.528,0,0,1,.095-.08.4.4,0,0,0,.053-.042.225.225,0,0,1,.08-.08c0-.013.015-.013.015-.013l.053-.053a.94.94,0,0,1,.135-.106c.053-.053.106-.093.161-.148l.389-.065h.013l.267-.053h.04l.04-.013.256-.04.015-.066.011-.2.055-.4.013-.106.028-.027.254-.214.013-.013a1.271,1.271,0,0,0-.836-2.225,1.4,1.4,0,0,0-.656.171c-.04.026-.066.053-.108.08v.013c-.011,0-.027.013-.038.028-.015,0-.026.013-.042.013l-.011.013h-.015l-.066.066-.042.04-.038.026-.11.106h-.013l-.04.04-.831.051H131.7l-.216.254h-.08l0,.7c-.042.04-.082.066-.121.106-.013,0-.013.013-.027.027-.04.04-.095.066-.135.108-1.57,1.373-3.127,2.761-4.662,4.148-.106.108-.214.2-.307.294-.133.121-.269.241-.391.36-.2.174-.4.347-.592.535-.241.226-.495.453-.738.694-.389.347-.766.708-1.142,1.068-.011.013-.011.013-.026.013-.616.586-1.263,1.187-1.868,1.8a.152.152,0,0,1-.055.04c-.7.668-1.4,1.333-2.082,2.027q-.8.762-1.572,1.563c-.013.013-.013.013-.027.013Q111.91,62.3,106.538,68.37a.508.508,0,0,0-.12.119A262.929,262.929,0,0,0,42.226,269.021" transform="translate(36.628 37.797)" fill="#4dadc0"/>
    <path id="Path_77" data-name="Path 77" d="M143.349,42.113a1.355,1.355,0,0,1,.8,2.45c-.083.061-.169.123-.254.184l0,.681-.161,0-.013.118-.133,0-.028.118-.91.038A273.788,273.788,0,0,0,32.985,253.051a1.37,1.37,0,0,1-1.415,1.292,1.354,1.354,0,0,1-1.292-1.417A276.468,276.468,0,0,1,140.8,43.7l0-.687.08,0,0-.078.133,0v-.091l.175,0v-.12l.9-.006c.154-.118.307-.23.461-.341a1.36,1.36,0,0,1,.8-.262" transform="translate(27.145 37.757)" fill="#479dba"/>
    <path id="Path_78" data-name="Path 78" d="M22.5,237.351a1.454,1.454,0,0,0,1.678-1.159c12.072-65.478,45.062-123.185,94.264-166.026a.348.348,0,0,0,.08-.066q8.039-7,16.638-13.471c.013,0,.013,0,.027-.013q2.922-2.179,5.894-4.305l3.021-2.12c1.637-1.132,3.3-2.266,4.967-3.372.133-.08.254-.173.389-.252a.177.177,0,0,0,.066-.04.193.193,0,0,1,.066-.04l.015-.028c.013,0,.013-.013.027-.013a.049.049,0,0,0,.04-.013v-.013c.013-.013.013-.013.027-.013l.027-.027h.013c.028-.013.042-.027.068-.04l.013-.013c.013,0,.013,0,.027-.013.108-.08.214-.146.322-.212.013-.013.04-.027.053-.04s.013-.013.027-.013.013-.027.027-.027.042-.013.055-.027a.674.674,0,0,1,.135-.095l.027.028.013.013.093-.068.095-.066h.013v-.013l.04-.027h.04l.51-.051h.053l.026-.013.2-.013.108-.013.106-.011h.027l0-.241.015-.415a.277.277,0,0,1,.08-.053c.04-.028.093-.055.135-.082l.241-.159.013-.013a1.437,1.437,0,0,0,.395-1.993,1.461,1.461,0,0,0-1.914-.45l-.027-.027-.027-.013-.04-.04-.08-.068-.027-.027-.042.04-.12.119-.161.161-.121.12-.243.241-.173.013-.135,0-.053.013-.053.013-.269.027-.334.027-.015.2-.042.5c-.013.013-.026.013-.04.027s-.013.013-.027.013c-2.9,1.917-5.773,3.863-8.591,5.864-.3.212-.592.413-.886.626-.4.294-.806.573-1.195.867-.645.453-1.29.92-1.921,1.386-1.005.734-2,1.479-2.979,2.227q-3.124,2.341-6.177,4.76-8.64,6.862-16.709,14.328c-.013,0-.013.013-.027.027a293.073,293.073,0,0,0-88.933,162,1.46,1.46,0,0,0,1.159,1.678" transform="translate(19.116 37.721)" fill="#408db4"/>
    <path id="Path_79" data-name="Path 79" d="M156.385,42.449a1.522,1.522,0,0,1,1.519,1.523,1.4,1.4,0,0,1-.021.254l0,.633-.671.387c-.042.027-.085.053-.129.076A306.9,306.9,0,0,0,17.463,218.95a1.518,1.518,0,1,1-2.894-.918A309.893,309.893,0,0,1,154.851,43.1l0-.647Z" transform="translate(12.998 38.058)" fill="#3a7dae"/>
    <path id="Path_80" data-name="Path 80" d="M90.41,42.3l.726.726a1.507,1.507,0,0,1,.427,1.274l0,1.318-1.284,0a1.545,1.545,0,0,1-1.762-1.5l.006-1.531,1.212-.008Z" transform="translate(79.357 37.921)" fill="#3a7dae"/>
    <path id="Path_81" data-name="Path 81" d="M91.407,42.028a1.519,1.519,0,0,1,.738,2.845c-.061.034-.119.066-.178.1l0,.656h-.3l-.013.159L90.2,45.85a1.5,1.5,0,0,1-.628-.066l-.927,0,0-.863a1.53,1.53,0,0,1-.112-.575l.019-1.532.389-.055,0-.171,1.125-.015c.2-.118.395-.233.6-.347a1.538,1.538,0,0,1,.745-.193" transform="translate(79.37 37.68)" fill="#3a7dae"/>
    <path id="Path_82" data-name="Path 82" d="M9.6,201.9A329.267,329.267,0,0,1,106.374,77.5q10.654-8.4,22.017-15.944,4.188-2.779,8.47-5.422c1.422-.893,2.845-1.76,4.281-2.625.939-.559,1.879-1.119,2.818-1.665a.041.041,0,0,0,.027-.013q7.527-4.415,15.3-8.413l.042-.482.013-.148v-.027h.082l.415-.025h.027l.6-.038.148-.08h.013l.2-.133h.254c.106-.053.214-.106.322-.173.027,0,.04-.013.066-.027l.241-.119a1.583,1.583,0,0,1,.738-.186,1.608,1.608,0,0,1,1.117,2.75l.133.133.119.108.121.121.119.108.658-.829c-.133.08-.833,1.1-.994,1.149-.082.027-.148.038-.214.066l-.068.025-.12.04-.082.027-.066.027v.082l-.241,0-.2.066v.108l-.3,0-.281.093.294,0-.307.011h-.013l-.108.121v-.082l-.174.053-.59.212-.322.119-.053.013-.04.013-.066.027h-.015l-.146-.148H160.6v-.013l-.027-.026-.08.04c-.015,0-.015.013-.028.013l-.013.013-.08.04a.013.013,0,0,0-.013.013c-.013,0-.027.013-.042.027H160.3c-.027.013-.04.027-.066.04h-.013l-.013.013a.049.049,0,0,0-.04.013.113.113,0,0,0-.055.027.049.049,0,0,0-.04.013.1.1,0,0,0-.053.027.125.125,0,0,0-.095.04c-.724.387-1.421.759-2.132,1.132-.645.345-1.29.679-1.919,1.024q-.885.481-1.771.958c-.9.493-1.785.973-2.67,1.466-.013.013-.013.013-.027.013-1.529.865-3.033,1.73-4.548,2.61h-.015q-3.36,1.937-6.668,3.968c-.846.506-1.678,1.026-2.522,1.559Q124.83,67.4,112.819,76.571c-.013.013-.013.013-.027.013A325.988,325.988,0,0,0,12.512,203.2,1.595,1.595,0,1,1,9.6,201.9" transform="translate(8.477 37.639)" fill="#336ea8"/>
    <path id="Path_83" data-name="Path 83" d="M163.079,42.533v.161l-.241,0h-.309v.294l0,.148V43.3q-10.964,5.044-21.465,10.776c-1.851,1-3.689,2.024-5.513,3.061-3.49,1.984-6.924,4.023-10.334,6.113q-14.372,8.833-27.731,18.979A345.221,345.221,0,0,0,6.062,186.53,1.68,1.68,0,1,0,8.977,188.2,341.333,341.333,0,0,1,109.619,77.537Q122.748,68.32,136.8,60.3a.013.013,0,0,0,.013-.013c.013-.013.027-.013.04-.027s.013-.013.027-.013c3.355-1.9,6.763-3.768,10.2-5.564.618-.345,1.248-.666,1.864-.984,1.221-.639,2.443-1.265,3.677-1.891a.013.013,0,0,0,.013-.013c.013,0,.013-.013.027-.013,1.047-.518,2.105-1.037,3.165-1.555.711-.36,1.436-.705,2.147-1.051.5-.241.979-.48,1.476-.706.751-.372,1.515-.732,2.266-1.077.484-.226.981-.451,1.462-.679a.122.122,0,0,1,.095-.04.1.1,0,0,1,.053-.026.049.049,0,0,1,.04-.013.1.1,0,0,1,.053-.027.055.055,0,0,1,.042-.013l.013-.013h.027c.013,0,.013-.013.027-.013v-.013c.013,0,.013-.013.027-.013h.013c.013-.013.013-.013.027-.013l.013-.013.015-.013h.013c.027-.013.04-.027.066-.04l.013-.013c.013,0,.013,0,.027-.013a.255.255,0,0,0,.095-.027c.013-.013.013-.013.027-.013l.08-.04.027.027.027.026.135.135.053-.013.322-.119.59-.212.174-.053v.082l.106-.121h.013l.309-.011-.3,0,.283-.093.294,0v-.106l0-.068.2,0h.241v-.08l.013-.121v-.08l.015-.349c.013-.013.04-.013.066-.027a1.793,1.793,0,0,0,.431-.265,1.682,1.682,0,0,0-1.773-2.818c-.188.08-.376.159-.55.252a1.879,1.879,0,0,0-.228.106h-.161l-.066,0-.159-.08-.082-.042-.027-.013-.188.053h-.053l-.013.013-.04.066h-.174Z" transform="translate(5.232 37.6)" fill="#2d5ea2"/>
    <path id="Path_84" data-name="Path 84" d="M165.325,42.57l-.241.08-.256.066-.04.013v.294l0,.148h-.013q-15.931,6.574-31.066,14.548-6.219,3.252-12.276,6.761A357.413,357.413,0,0,0,89.419,85.188,364.454,364.454,0,0,0,3.654,172.545a1.761,1.761,0,1,0,2.887,2.018,361.053,361.053,0,0,1,93.189-92.3,352.394,352.394,0,0,1,34.153-20.631q5.957-3.175,12.047-6.12c.013,0,.027-.013.04-.013,2.094-1.037,4.212-2.035,6.333-3.006.508-.239,1.018-.478,1.529-.705.817-.385,1.637-.743,2.454-1.1.846-.387,1.677-.759,2.522-1.117.6-.279,1.219-.546,1.825-.8.429-.186.844-.372,1.273-.544.779-.345,1.557-.664,2.335-.982.389-.175.778-.347,1.18-.493a.122.122,0,0,1,.095-.04.1.1,0,0,1,.053-.027.049.049,0,0,1,.04-.013.1.1,0,0,1,.053-.027.055.055,0,0,1,.042-.013h.013v-.013h.027c.013,0,.013-.013.027-.013a.049.049,0,0,0,.04-.013v-.013c.013-.013.013-.013.027-.013l.013-.013.015-.013h.013a.256.256,0,0,0,.133-.04c.013,0,.013,0,.027-.013h.015l.013-.013h.027v-.013h.027a.013.013,0,0,1,.013-.013.189.189,0,0,1,.08-.027.013.013,0,0,1,.013-.013c.121-.053.229-.093.349-.146.095-.04.2-.08.3-.12l.577,0h.066l.133-.013.283-.093.294,0v-.106l.2-.066h.241v-.08l.066-.027.013-.108v-.066l.028-.228a.591.591,0,0,1,.095-.04c.013-.013.04-.013.053-.027a1.421,1.421,0,0,0,.389-.241,1.747,1.747,0,0,0,.542-2.073,1.769,1.769,0,0,0-1.616-1.077,1.876,1.876,0,0,0-.7.144l-.121.053-.013-.013-.577.254-.174.066-.093,0h-.442l-.161,0H165.9l-.013.013-.214.066Z" transform="translate(2.986 37.563)" fill="#264e9c"/>
    <path id="Path_85" data-name="Path 85" d="M2.075,159.942A384.582,384.582,0,0,1,80.033,88.108a379.885,379.885,0,0,1,37.136-22.817,385.694,385.694,0,0,1,49.1-22.229s0-.013.013,0a.055.055,0,0,1,.028-.013c.013-.013.027-.013.053-.027h.027c.013-.013.027-.027.04-.027h.013a.055.055,0,0,1,.042-.013c.04-.013.066-.027.106-.04a1.743,1.743,0,0,1,.228-.093h.028a.81.81,0,0,1,.159-.066l.082-.04.523-.305.053-.042.08-.04.429-.038h.028l.04-.013.683-.279.042.04c.093-.04.2-.066.294-.106a2,2,0,0,1,.616-.1,1.837,1.837,0,0,1,1.737,1.238,1.817,1.817,0,0,1-.69,2.113,1.45,1.45,0,0,1-.442.239h-.013c-.055.013-.095.04-.148.053l-.013.121,0,.148-.08.027-.066.027,0,.08h-.241l-.2.066v.106l-.683,0-.027.027-.068.08-.106.093-.59.212-.322.119-.053.013-.042.013-.066.027-.106-.12-.013-.015-.027-.027-.013.013h-.015c-.013,0-.027.013-.04.013h-.013c-.013.013-.013.013-.027.013-.053.027-.121.04-.174.066-.013,0-.027.013-.04.013l-.082.04a2.742,2.742,0,0,0-.415.159c-.027,0-.04,0-.053.013-.254.093-.51.186-.751.279-.8.305-1.608.6-2.4.916-.389.133-.764.292-1.138.438-.523.2-1.034.4-1.557.611-.711.266-1.407.544-2.105.838-.6.226-1.22.478-1.825.73-.415.159-.831.332-1.246.5-1.5.611-3.017,1.235-4.519,1.887-2.467,1.035-4.91,2.113-7.351,3.217q-7.525,3.368-14.89,7.074A383.763,383.763,0,0,0,4.933,162.282a1.847,1.847,0,0,1-2.858-2.34" transform="translate(1.486 37.525)" fill="#203e96"/>
    <path id="Path_86" data-name="Path 86" d="M1.131,148.657a404.54,404.54,0,0,1,70.711-59.2,408.625,408.625,0,0,1,95.379-46.5h.013a.049.049,0,0,1,.04-.013.188.188,0,0,1,.08-.027,1,1,0,0,1,.174-.066v-.121l.243-.08.347-.091.216-.066.013-.013h.053l.188-.053.106-.027.389-.119h.055l.119-.053.685-.2.013.013c.148-.053.281-.091.429-.131a1.746,1.746,0,0,1,.577-.093,1.917,1.917,0,0,1,1.83,1.36,1.9,1.9,0,0,1-.8,2.179,1.349,1.349,0,0,1-.468.228h-.013c-.055.011-.082.04-.135.053v.133l-.121.04-.08.027-.066.027,0,.08h-.241l-.2.066v.106h-.294l-.283.093h.3l-.309.013h-.013l-.108.119v-.08l-.174.053-.59.212-.32.12-.135-.135c-.013,0-.04.013-.053.013a.1.1,0,0,1-.053.013l-.013.013c-.013,0-.013,0-.027.013h-.028a.049.049,0,0,1-.04.013l-.013.013a.189.189,0,0,1-.08.027.049.049,0,0,0-.04.013c-.042.013-.095.027-.135.04a.049.049,0,0,1-.04.013c-.013,0-.013.013-.028.013h-.027v.013h-.013a.049.049,0,0,0-.04.013.1.1,0,0,0-.053.027.049.049,0,0,0-.04.013.106.106,0,0,0-.055.026,1.05,1.05,0,0,0-.214.066c-.027,0-.04,0-.053.013-.228.066-.455.146-.671.226-.791.264-1.568.529-2.346.808-.349.106-.7.226-1.045.358-.47.159-.926.319-1.394.491-.6.212-1.208.425-1.811.65h-.013c-.468.159-.925.332-1.394.5-.389.133-.764.265-1.153.41-1.18.438-2.361.876-3.528,1.328l-.013.013c-.013,0-.027.015-.04.013-1.743.637-3.473,1.288-5.2,1.993q-4.444,1.733-8.838,3.586-8.267,3.468-16.363,7.311A404.571,404.571,0,0,0,3.934,151.318a1.932,1.932,0,0,1-2.8-2.661" transform="translate(0.541 37.487)" fill="#192f90"/>
    <path id="Path_87" data-name="Path 87" d="M.647,138.555a424.3,424.3,0,0,1,166.9-95.685l.214-.064h.013l.04-.013.256-.066.241-.08.347-.093.216-.066.013-.013h.053l.188-.053.108-.027.389-.119.173-.053.685-.2.442-.119a1.7,1.7,0,0,1,.577-.091,1.923,1.923,0,0,1,1.034,3.539l.658-.829c-.135.08-.835,1.1-1,1.147-.08.027-.146.04-.214.066l-.066.027-.121.04-.08.027-.066.026v.082l-.243,0-.2.066v.108l-.294,0-.283.093.3,0-.309.011H170.6l-.108.121,0-.081-.174.053-.59.212-.322.119-.053.013-.042.013-.106-.108a.12.12,0,0,1-.066.013l-.013.013c-.027.013-.068.013-.095.027s-.066.013-.093.027l-.013.013a.055.055,0,0,0-.042.013h-.013a.8.8,0,0,0-.161.053.123.123,0,0,0-.066.013c-.027,0-.04.013-.053.013a.049.049,0,0,0-.04.013.113.113,0,0,0-.055.027,1.047,1.047,0,0,0-.214.066c-.027,0-.04,0-.053.013-.2.053-.4.119-.6.186-.013,0-.027.013-.04.013-.764.226-1.515.449-2.266.7-.321.093-.656.186-.979.292-.429.133-.844.265-1.259.4-.537.173-1.073.345-1.61.531h-.013c-.376.106-.738.226-1.1.358-.36.106-.723.226-1.072.343-.952.305-1.9.624-2.843.943q-2.011.677-3.981,1.352a.048.048,0,0,1-.028.013c-2.05.717-4.1,1.434-6.141,2.191q-4.828,1.73-9.6,3.609-9.132,3.568-18.038,7.535A415.123,415.123,0,0,0,72.382,89.455,421.553,421.553,0,0,0,3.368,141.51a2.009,2.009,0,0,1-2.722-2.955" transform="translate(0 37.488)" fill="#131f8a"/>
    <path id="Path_88" data-name="Path 88" d="M88.505,45.322c.066-.027.188-.106.376-.186.013-.013.027-.027.04-.027.095-.053.2-.093.309-.159.093-.04.188-.08.3-.135h.013c.013-.013.027-.011.053-.027l.026-.027a.187.187,0,0,0,.08-.027l.015-.013a.049.049,0,0,0,.04-.013h.026c.013-.013.013-.013.027-.013l.013-.013a.08.08,0,0,1,.053-.013,2.227,2.227,0,0,1,.362-.159c.121-.053.229-.106.349-.146.161-.066.323-.119.484-.172a.188.188,0,0,1,.08-.027v-.013h.04c.055-.027.108-.04.161-.066a.324.324,0,0,0,.108-.027c.04-.013.066-.013.106-.027.013,0,.013-.013.028-.013a.248.248,0,0,0,.093-.027,10.4,10.4,0,0,0,.294-.051,1.616,1.616,0,0,1,.336-.053.144.144,0,0,1,.066-.013h.068a.325.325,0,0,1,.12.015h.068l-.068.027-.12.04-.082.027-.066.027-.444.144-.294.106-.281.093-.015.013h-.013l-.106.04-.175.053-.59.212-.322.12-.053.013-.04.013-.068.027h-.013l-.281.093-.148.053-.174.066-.135.04-.307.106L88.6,45.3Z" transform="translate(79.349 39.336)" fill="#131f8a"/>
  </g>
</svg>
