<svg id="Component_77_1" data-name="Component 77 – 1" xmlns="http://www.w3.org/2000/svg" width="156.5" height="59.373" viewBox="0 0 156.5 59.373">
  <g id="Group_14580" data-name="Group 14580" transform="translate(-1153.999 -19.016)">
    <g id="Group_14582" data-name="Group 14582" transform="translate(43.201 -263.7)">
      <g id="Group_10901" data-name="Group 10901" transform="translate(1212.909 287.7)">
        <rect id="Rectangle_1" data-name="Rectangle 1" width="53.889" height="53.889" rx="12" transform="translate(0 0)" fill="#fff" stroke="#408db4" stroke-width="1"/>
        <g id="Group_14583" data-name="Group 14583" transform="translate(-570.04 -363.442)">
          <path id="Path_57" data-name="Path 57" d="M92.711.067a.115.115,0,0,0-.15-.057A.115.115,0,0,0,92.5.16a23.806,23.806,0,0,1-3.274,24.931l-.018.021h0s0,0,0,0h0l0,0a0,0,0,0,1,0,0l-.014.015a0,0,0,0,1,0,0s0,0,0,0h0s0,0,0,0,0,0,0,0h0l-.005.006-.008.011h0c-.007.011-.016.021-.025.032l-.059,0h-.005v.113a.112.112,0,0,0,.113.112h.018l.092,0h.01v-.073l.029-.034s0,0,0,0h0c.087-.107.175-.215.26-.323a.1.1,0,0,0,.011-.014l.014-.016a.24.24,0,0,1,.019-.025l.022-.029.033-.041c.015-.019.029-.037.042-.056h0l0,0,.067-.086.127-.167h0c.078-.105.157-.209.235-.316q.363-.5.7-1.007A24.182,24.182,0,0,0,92.711.067" transform="translate(507.846 373.546)" fill="#5acccc"/>
          <path id="Path_58" data-name="Path 58" d="M101.534,29.092A29.862,29.862,0,0,1,92.127,46q-.746.672-1.542,1.293-.277.22-.562.429c-.089.068-.179.134-.269.2-.055.041-.111.081-.167.122l-.112.079q-.041.031-.082.057c-.184.133-.372.261-.562.39l-.19.127-.014.008,0,0-.021.014a.026.026,0,0,0-.008.006l-.007,0,0,.045v.011l-.062,0-.016.019-.012.015,0,0s0,0,0,0l0,0,0,0a.083.083,0,0,1-.018.014s0,0,0,0l0,0h0l0,0a.118.118,0,0,1-.048.011.108.108,0,0,1-.071-.026.111.111,0,0,1-.018-.156s0,0,0,0h0l0,0-.011-.011-.014-.012-.07-.07-.011-.009-.018-.018h.167V48.5l.018-.005.06-.022.015.016.015.015h0l.016.016.005.006.007,0h0l.156-.1s0,0,.007,0l.008-.005a.281.281,0,0,0,.026-.018l.029-.019c.023-.015.046-.03.068-.047l.217-.149c.008-.006.018-.011.026-.018.092-.063.183-.127.273-.191.183-.13.362-.261.541-.394q.787-.584,1.53-1.215a29.4,29.4,0,0,0,9.932-17.305.114.114,0,1,1,.224.041" transform="translate(508.559 350.194)" fill="#5acccc"/>
          <path id="Path_59" data-name="Path 59" d="M95.313,4.721a.122.122,0,0,0-.235.063,25.274,25.274,0,0,1-4.6,22.177,24.642,24.642,0,0,1-1.631,1.859c-.008.008-.015.016-.023.023a0,0,0,0,1,0,0h0v0h0a0,0,0,0,1,0,0l-.014.014,0,0h0l-.005,0a.023.023,0,0,1-.008.008,0,0,0,0,1,0,0l-.006.005s-.007.007-.009.011h0l-.022.023-.044,0h-.03l-.007.011,0,0h-.008v.009l0,.066-.014.014,0,0-.012.012,0,0a.122.122,0,0,0,.089.2.115.115,0,0,0,.063-.018l0,0h.007l.007-.007,0,0,0,0,.011-.011a.22.22,0,0,1,.018-.019H88.9l.015-.023h.008v-.073l.021-.021s0,0,0,0c.122-.123.242-.249.359-.375a.243.243,0,0,0,.018-.021.18.18,0,0,0,.023-.025.266.266,0,0,0,.033-.035c.015-.015.03-.03.042-.045s.042-.045.063-.067.062-.066.09-.1c.018-.018.034-.035.051-.055l.1-.112q.162-.181.32-.365s0,0,0,0q.457-.529.88-1.081A25.366,25.366,0,0,0,95.313,4.721" transform="translate(508.241 369.812)" fill="#54bcc6"/>
          <path id="Path_60" data-name="Path 60" d="M97.86,11.639a.131.131,0,0,0-.26.027,26.565,26.565,0,0,1-6.766,20.676q-.553.607-1.147,1.184c-.3.287-.6.57-.915.845a.276.276,0,0,1-.03.026h0l0,0,0,0H88.73a0,0,0,0,1,0,0h0a.037.037,0,0,1-.011.01l-.01.008-.005,0a.026.026,0,0,1-.008.008,0,0,0,0,1,0,0l-.006.005-.014.011-.016.015-.04.007h0l-.027.006h-.008l-.026,0v.027l-.005.041v.011l0,0-.026.022h0a.13.13,0,0,0,.086.227.143.143,0,0,0,.067-.018l.011-.008h0l0,0h.007l.007-.007,0,0,0,0,.011-.011h0l0,0,.085-.005h0l.022-.026h.008V34.66l.012-.011s0,0,0,0l.014-.011q.24-.211.474-.425l.031-.03.04-.037c.021-.018.041-.036.06-.055s.051-.046.075-.071c.04-.035.078-.072.116-.109h0c.063-.06.129-.122.19-.184l.005,0c.071-.068.142-.137.212-.208q.082-.078.16-.16h0q.584-.588,1.13-1.21a.057.057,0,0,0,.012-.012A26.836,26.836,0,0,0,97.86,11.639" transform="translate(508.336 364.255)" fill="#4dadc0"/>
          <path id="Path_61" data-name="Path 61" d="M88.485,41.548a.138.138,0,0,1-.082-.25l.026-.019V41.21h.016V41.2h.014l0-.012.093,0a27.943,27.943,0,0,0,11.122-21.2.14.14,0,0,1,.144-.132.138.138,0,0,1,.132.144A28.218,28.218,0,0,1,88.745,41.385v.07h-.008v.008h-.014v.009h-.018v.012h-.092l-.047.035a.139.139,0,0,1-.082.027" transform="translate(508.435 357.54)" fill="#479dba"/>
          <path id="Path_62" data-name="Path 62" d="M101.481,28.788a.148.148,0,0,0-.171.119,29.36,29.36,0,0,1-9.564,16.977l-.008.007q-.818.718-1.694,1.381h0q-.3.223-.6.442l-.308.217c-.167.116-.336.232-.506.346l-.04.026a.018.018,0,0,0-.007,0,.016.016,0,0,1-.007,0v0h-.01l0,0h0l-.007,0h0l-.033.022-.005,0h0s0,0,0,0l-.006,0a.081.081,0,0,1-.014.009l0,0h0l-.01.007-.009.007h0l0,0h0l-.052.005h-.053v.025l0,.042a.026.026,0,0,1-.008.006l-.014.008-.025.016h0a.147.147,0,0,0-.039.2.143.143,0,0,0,.122.064.141.141,0,0,0,.074-.019l0,0h0l0,0,.008.007,0,0,0,0,.012-.012.016-.016.012-.012.025-.025h.042l.027,0,.034,0v-.021l0-.051,0,0h0c.3-.2.588-.4.875-.6l.09-.064c.041-.03.082-.059.122-.089.066-.046.131-.094.2-.142.1-.075.2-.152.3-.228q.318-.24.629-.488.88-.7,1.7-1.468s0,0,0,0a29.576,29.576,0,0,0,4.66-5.555A29.874,29.874,0,0,0,101.6,28.959a.149.149,0,0,0-.119-.171" transform="translate(508.526 350.332)" fill="#408db4"/>
          <path id="Path_63" data-name="Path 63" d="M89,55.911a.156.156,0,0,1-.156-.155.141.141,0,0,1,0-.026v-.065l.068-.039.013-.008a31.323,31.323,0,0,0,14.191-17.769.155.155,0,0,1,.3.093,31.631,31.631,0,0,1-14.258,17.9v.066Z" transform="translate(508.034 343.112)" fill="#3a7dae"/>
          <path id="Path_64" data-name="Path 64" d="M88.946,130.347l-.074-.074a.155.155,0,0,1-.044-.13v-.135h.131a.157.157,0,0,1,.18.152v.156h-.123Z" transform="translate(508.048 268.705)" fill="#3a7dae"/>
          <path id="Path_65" data-name="Path 65" d="M88.268,130.4a.155.155,0,0,1-.076-.29l.018-.01v-.067h.03v-.016l.148-.007a.152.152,0,0,1,.064.007h.095v.088a.156.156,0,0,1,.012.059l0,.156-.04.006v.017l-.115,0-.061.036a.154.154,0,0,1-.076.02" transform="translate(508.624 268.7)" fill="#3a7dae"/>
          <path id="Path_66" data-name="Path 66" d="M103.414,46.535a33.6,33.6,0,0,1-9.835,12.73q-1.084.861-2.242,1.635-.427.285-.863.556c-.145.092-.29.18-.436.269l-.287.171h0q-.767.453-1.558.864l0,.049v.018h-.008l-.042,0h0l-.062,0-.015.008h0l-.021.014h-.026l-.033.018a.015.015,0,0,0-.007,0l-.025.012a.163.163,0,0,1-.19-.261l-.014-.014-.012-.011-.012-.012-.012-.011-.067.085c.014-.008.085-.112.1-.118l.022-.007.007,0,.012,0,.008,0,.007,0v-.008h.025l.02-.007V62.5h.03l.029-.009h0l.011-.012v.008l.018-.006.06-.022.033-.012h.01l.007,0h0l.015.015h0l0,0,.008,0h0l.008,0a0,0,0,0,0,0,0l0,0h0l.007,0h0v0h0l.005,0h0l.005,0a.012.012,0,0,0,.009,0l.217-.116.2-.105.18-.1.272-.15h0c.156-.089.309-.178.463-.268h0q.342-.2.679-.407c.086-.052.171-.105.257-.16q1.306-.82,2.529-1.761h0A33.274,33.274,0,0,0,103.116,46.4a.163.163,0,1,1,.3.131" transform="translate(509.009 336.203)" fill="#336ea8"/>
          <path id="Path_67" data-name="Path 67" d="M88.323,69.285v-.016h.056v-.062q1.117-.519,2.187-1.107.283-.154.562-.315c.355-.2.705-.413,1.052-.627q1.464-.906,2.824-1.947a35.235,35.235,0,0,0,9.3-10.677.171.171,0,0,0-.3-.17A34.84,34.84,0,0,1,93.768,65.694q-1.337.945-2.768,1.769a0,0,0,0,0,0,0l0,0h0c-.342.2-.689.387-1.039.571-.063.035-.127.068-.19.1-.124.066-.249.13-.375.194a0,0,0,0,0,0,0h0l-.323.16c-.072.037-.146.073-.219.108-.051.025-.1.049-.15.073-.077.038-.154.075-.231.111l-.149.07a.012.012,0,0,1-.009,0l-.005,0h0l-.006,0h-.011v0h-.011l-.007,0h0l-.01,0h0l-.008,0,0,0,0,0-.014-.014H88.21l-.033.012-.06.022-.018.005v-.008l-.011.012h0l-.029.009h-.03v.018h-.045v.029l0,.036-.007,0a.184.184,0,0,0-.044.027.173.173,0,0,0,.113.3.169.169,0,0,0,.068-.015c.019-.008.038-.016.056-.026a.156.156,0,0,0,.023-.011h.023l.016.008.008,0h0l.019-.005h.007l0-.007h.018Z" transform="translate(508.819 329.775)" fill="#2d5ea2"/>
          <path id="Path_68" data-name="Path 68" d="M88.228,75.133l.025-.008.026-.007h0v-.045h0q1.624-.677,3.166-1.5.634-.334,1.251-.695a36.5,36.5,0,0,0,3.26-2.124,37.2,37.2,0,0,0,8.724-8.945.18.18,0,0,0-.3-.2,36.851,36.851,0,0,1-9.48,9.452,35.935,35.935,0,0,1-3.479,2.117q-.607.326-1.227.629h0c-.213.107-.429.209-.645.309l-.156.072c-.083.04-.167.077-.25.114s-.171.078-.257.115c-.062.029-.124.056-.186.082-.044.019-.086.038-.13.056-.079.036-.159.068-.238.1-.04.018-.079.036-.12.051a.012.012,0,0,1-.009,0l-.005,0h0l-.006,0h-.011a0,0,0,0,0,0,0H88.17a.026.026,0,0,0-.014,0h-.011a0,0,0,0,1,0,0l-.008,0a0,0,0,0,1,0,0l-.036.015-.03.012H87.99l-.029.009h-.03v.011l-.021.007h-.025v.008l-.007,0v.018l0,.023-.009,0-.006,0a.144.144,0,0,0-.039.025.179.179,0,0,0-.055.212.181.181,0,0,0,.166.109A.188.188,0,0,0,88,75.187l.012-.005h0l.059-.026.018-.007h.078l.022-.007Z" transform="translate(508.915 323.927)" fill="#264e9c"/>
          <path id="Path_69" data-name="Path 69" d="M104.9,68.369a39.25,39.25,0,0,1-7.932,7.358,38.761,38.761,0,0,1-3.782,2.341,39.384,39.384,0,0,1-5,2.286s0,0,0,0h0l-.006,0h0l0,0h-.005l-.011,0-.023.01h0l-.016.007-.008,0-.053.031-.006,0-.008,0-.044,0h-.007l-.07.029,0,0-.03.011a.2.2,0,0,1-.063.011.188.188,0,0,1-.178-.126.186.186,0,0,1,.07-.216.145.145,0,0,1,.045-.025h0l.015-.006v-.027l.008,0,.007,0v-.008h.025l.021-.007v-.011h.07l0,0,.007-.008.011-.009.06-.022.033-.012h.01l.007,0,.011.012h0l0,0h.011l.018-.007h0l.008,0a.254.254,0,0,0,.042-.016h.006l.076-.029c.082-.031.164-.062.245-.094.04-.014.078-.03.116-.045l.159-.063c.072-.027.143-.056.214-.086s.124-.049.186-.075l.127-.052c.153-.063.308-.127.461-.194.251-.106.5-.217.749-.331q.767-.347,1.517-.727a39.166,39.166,0,0,0,12.625-10.143.189.189,0,1,1,.292.238" transform="translate(509.013 318.66)" fill="#203e96"/>
          <path id="Path_70" data-name="Path 70" d="M105.011,74.232a41.287,41.287,0,0,1-7.2,6.067A41.707,41.707,0,0,1,88.1,85.077H88.09l-.008,0-.018.007V85.1l-.025.008L88,85.118l-.022.007h-.007l-.019.006-.011,0-.04.012H87.9l-.012.006-.07.02h0l-.044.014a.176.176,0,0,1-.059.009.2.2,0,0,1-.107-.361.142.142,0,0,1,.048-.023h0l.014-.005v-.014l.012,0,.008,0,.007,0v-.008h.025l.021-.007v-.011h.03l.029-.01h0l.011-.012v.008l.018-.005.06-.022.033-.012.014.014h.018a0,0,0,0,1,0,0h0l.008,0h0l.014,0H88l.005,0h0l.006,0a.116.116,0,0,0,.022-.007s0,0,.006,0c.023-.007.046-.015.068-.023.081-.027.16-.055.239-.083.035-.011.071-.023.106-.037l.142-.051.184-.067h0c.048-.016.094-.034.142-.052l.117-.042c.12-.045.241-.09.359-.137h.005c.178-.066.354-.133.53-.2q.453-.179.9-.369.843-.357,1.668-.752a41.29,41.29,0,0,0,12.212-8.9.2.2,0,1,1,.287.271" transform="translate(509.103 313.952)" fill="#192f90"/>
          <path id="Path_71" data-name="Path 71" d="M105.119,79.459a43.305,43.305,0,0,1-17,9.823l-.022.007H88.09l-.026.007-.025.008-.035.01-.022.007h-.007l-.019.005-.011,0-.04.012-.018.005-.07.021-.045.012a.176.176,0,0,1-.059.009.2.2,0,0,1-.107-.361l-.067.085c.014-.008.085-.112.1-.118l.022-.007.007,0,.012,0,.008,0,.007,0v-.008h.025l.021-.007v-.011h.03l.029-.009h0l.011-.012v.008l.018-.006.06-.022.033-.012h.01l.011.011h.008l.009,0,.01,0h.007L88,88.89h.016l.006,0a.107.107,0,0,0,.022-.007s0,0,.005,0l.062-.019h0c.078-.023.154-.046.231-.072.033-.01.067-.019.1-.03l.129-.041.164-.055h0c.038-.011.075-.023.112-.037s.074-.023.109-.035l.29-.1.406-.139h0c.209-.074.418-.148.626-.226q.492-.179.979-.372.931-.367,1.839-.775A42.377,42.377,0,0,0,97.814,84.5a43.009,43.009,0,0,0,7.026-5.337.205.205,0,0,1,.279.3" transform="translate(509.103 309.754)" fill="#131f8a"/>
          <path id="Path_72" data-name="Path 72" d="M88.692,129.419c-.007,0-.019.011-.038.019l0,0c-.009.005-.021.009-.031.016l-.03.014h0l-.005,0,0,0-.008,0h-.012a.008.008,0,0,1-.005,0,.224.224,0,0,1-.037.016.374.374,0,0,1-.036.015c-.016.007-.033.012-.049.018l-.008,0h0l-.016.007a.034.034,0,0,0-.011,0l-.011,0h0l-.01,0-.015,0-.015,0a.15.15,0,0,1-.034.006h-.033l.007,0,.012,0,.008,0,.007,0,.045-.015.03-.011.029-.01h0l.011,0,.018-.005.06-.022.033-.012h.009l.007,0h0l.029-.009.015-.005.018-.007.014,0,.031-.011.025-.01Z" transform="translate(508.496 269.179)" fill="#131f8a"/>
          <path id="Path_73" data-name="Path 73" d="M61.975,68.043a.114.114,0,0,0,.208-.092A23.8,23.8,0,0,1,65.54,43.03l.018-.021h0s0,0,0,0h0l0,0a0,0,0,0,1,0,0l.014-.015a0,0,0,0,1,0,0s0,0,0,0h0s0,0,0,0,0,0,0,0h0l.005-.005.008-.011h0c.007-.011.016-.021.025-.031l.059,0h.005V42.8a.112.112,0,0,0-.113-.112h-.018l-.092,0h-.009v.072l-.029.034s0,0,0,0h0c-.088.106-.176.214-.261.322l-.011.014-.014.016a.3.3,0,0,1-.019.025l-.022.029-.033.041c-.015.019-.029.037-.042.056h0l0,0-.067.086-.128.166h0c-.078.105-.158.209-.236.315q-.365.5-.7,1.005a24.182,24.182,0,0,0-1.913,23.154" transform="translate(531.384 339.118)" fill="#5acccc"/>
          <path id="Path_74" data-name="Path 74" d="M21.5,61.974A29.859,29.859,0,0,1,30.959,45.1q.749-.67,1.546-1.288.277-.218.563-.427c.089-.068.18-.133.27-.2.055-.041.111-.08.167-.121l.112-.079c.027-.02.055-.039.082-.057.185-.132.373-.26.563-.388l.19-.126.014-.008,0,0,.021-.014.008-.005.007,0,0-.045v-.011l.062,0,.016-.019.012-.015,0,0s0,0,0,0l0,0,0,0a.089.089,0,0,1,.018-.014s0,0,0,0l0,0h0l0,0a.117.117,0,0,1,.048-.011.109.109,0,0,1,.071.026.111.111,0,0,1,.017.156s0,0,0,0h0l0,0,.011.011.014.012.069.07.011.009.018.018h-.167v.061l-.018.005-.06.022-.015-.016-.015-.015h0l-.016-.016-.006-.005-.007,0h0l-.156.1s0,0-.007,0l-.008.005a.259.259,0,0,0-.026.018l-.029.019c-.023.015-.046.03-.069.046l-.218.148a.3.3,0,0,0-.026.018c-.092.063-.184.127-.274.19-.184.129-.363.26-.543.392q-.789.582-1.534,1.21a29.4,29.4,0,0,0-9.99,17.272.114.114,0,0,1-.224-.042" transform="translate(562.347 339.482)" fill="#5acccc"/>
          <path id="Path_75" data-name="Path 75" d="M51.674,66.714a.121.121,0,0,0,.149.087.122.122,0,0,0,.087-.149,25.274,25.274,0,0,1,4.672-22.161,24.653,24.653,0,0,1,1.637-1.854c.008-.008.015-.016.023-.023a.006.006,0,0,1,0,0h0v0h0a0,0,0,0,1,0,0l.014-.014,0,0h0l.005,0a.024.024,0,0,1,.008-.008,0,0,0,0,1,0,0l.005-.005s.007-.007.01-.011h0l.022-.023.044,0h.03l.007-.011,0,0h.008V42.5l0-.065.014-.014,0,0,.012-.012,0,0a.122.122,0,0,0-.088-.205.113.113,0,0,0-.063.018l0,0h-.007l-.007.007,0,0,0,0-.011.011-.018.019h-.072l-.015.023h-.008v.073l-.021.02s0,0,0,0c-.122.123-.243.248-.361.373a.246.246,0,0,0-.018.021.192.192,0,0,0-.023.024.267.267,0,0,0-.033.035c-.015.015-.03.03-.043.045s-.043.045-.063.067-.062.065-.091.1c-.018.018-.034.035-.051.054l-.1.112q-.163.18-.321.364s0,0,0,0q-.459.527-.884,1.078a25.367,25.367,0,0,0-4.459,22.049" transform="translate(538.691 339.516)" fill="#54bcc6"/>
          <path id="Path_76" data-name="Path 76" d="M40.994,65.313a.131.131,0,1,0,.26-.027,26.566,26.566,0,0,1,6.835-20.653q.556-.605,1.151-1.18c.3-.286.6-.568.917-.842a.32.32,0,0,1,.03-.026h0l0,0,0,0H50.2a0,0,0,0,1,0,0h0a.04.04,0,0,1,.011-.009l.01-.008.005,0a.023.023,0,0,1,.008-.008s0,0,0,0l.005-.005.014-.011.016-.015.04-.007h0l.027-.005h.008l.026,0,0-.007v-.021l.006-.041v-.011l0,0,.026-.022h0a.13.13,0,0,0-.085-.227.143.143,0,0,0-.067.017l-.011.008h0l0,0h-.007l-.007.007,0,0,0,0-.011.011h0l0,0-.085.005h0l-.022.026h-.008v.071l-.012.011s0,0,0,0l-.014.011c-.16.14-.319.282-.476.423l-.031.03-.04.037c-.021.018-.041.035-.06.055s-.051.046-.075.071-.078.072-.117.109h0c-.063.06-.129.121-.191.184l-.006,0c-.071.068-.142.136-.213.207q-.082.078-.16.16h0q-.586.587-1.135,1.206a.052.052,0,0,0-.012.012,26.836,26.836,0,0,0-6.552,20.467" transform="translate(546.735 339.549)" fill="#4dadc0"/>
          <path id="Path_77" data-name="Path 77" d="M41.818,42.113a.138.138,0,0,1,.081.25l-.026.019v.069h-.016v.012h-.014l0,.012-.093,0A27.944,27.944,0,0,0,30.554,63.642a.14.14,0,0,1-.144.132.138.138,0,0,1-.132-.145,28.218,28.218,0,0,1,11.28-21.354v-.07h.008V42.2h.014v-.009H41.6v-.012h.092l.047-.035a.139.139,0,0,1,.082-.027" transform="translate(555.264 339.585)" fill="#479dba"/>
          <path id="Path_78" data-name="Path 78" d="M21.443,62a.148.148,0,0,0,.171-.118A29.361,29.361,0,0,1,31.235,44.94l.008-.007q.821-.715,1.7-1.375h0q.3-.222.6-.439l.308-.216c.167-.116.337-.231.507-.344l.04-.026a.018.018,0,0,0,.007,0,.02.02,0,0,1,.007,0l0,0h.009l0,0h0l.007,0h0l.033-.022.005,0h0s0,0,0,0l.006,0a.069.069,0,0,1,.014-.01l0,0h0l.009-.007.01-.007h0l0,0h0l.052-.005h.053v-.025l0-.042.008-.005.014-.008.025-.016h0a.147.147,0,0,0,.04-.2.149.149,0,0,0-.2-.046l0,0h0l0,0-.008-.007,0,0,0,0-.012.012-.016.016-.012.012-.025.025H34.4l-.027,0-.034,0,0,.02,0,.051,0,0h0c-.3.2-.589.394-.877.6l-.09.064c-.041.03-.082.058-.122.088-.066.046-.132.094-.2.142-.1.075-.2.151-.3.227q-.319.239-.63.486-.882.7-1.705,1.462s0,0,0,0a29.912,29.912,0,0,0-9.077,16.534.149.149,0,0,0,.118.171" transform="translate(562.485 339.617)" fill="#408db4"/>
          <path id="Path_79" data-name="Path 79" d="M28.979,42.449a.155.155,0,0,1,.155.155.143.143,0,0,1,0,.026V42.7l-.069.039-.013.008A31.324,31.324,0,0,0,14.8,60.463a.155.155,0,1,1-.3-.094A31.629,31.629,0,0,1,28.822,42.516V42.45Z" transform="translate(567.989 339.314)" fill="#3a7dae"/>
          <path id="Path_80" data-name="Path 80" d="M88.708,42.3l.074.074a.154.154,0,0,1,.044.13v.135h-.131a.158.158,0,0,1-.18-.153v-.156h.124Z" transform="translate(508.3 339.438)" fill="#3a7dae"/>
          <path id="Path_81" data-name="Path 81" d="M88.822,42.028a.155.155,0,0,1,.075.29l-.018.01V42.4h-.03v.016l-.149.006a.153.153,0,0,1-.064-.007H88.54v-.088a.156.156,0,0,1-.011-.059l0-.156.04-.006v-.017l.115,0,.061-.035a.157.157,0,0,1,.076-.02" transform="translate(508.288 339.654)" fill="#3a7dae"/>
          <path id="Path_82" data-name="Path 82" d="M9.47,58.3a33.606,33.606,0,0,1,9.878-12.7q1.087-.858,2.247-1.627.427-.284.864-.553c.145-.091.29-.18.437-.268l.288-.17h0q.768-.451,1.561-.859l0-.049v-.018h.008l.042,0h0l.062,0,.015-.008h0l.021-.014h.026l.033-.018s0,0,.007,0L24.995,42a.162.162,0,0,1,.075-.019.164.164,0,0,1,.114.281l.014.014.012.011.012.012.012.011.067-.085c-.014.008-.085.112-.1.117l-.022.007-.007,0-.012,0-.008,0-.007,0v.008H25.12l-.021.007v.011h-.03l-.029.009h0l-.011.012V42.4l-.018.005-.06.022-.033.012h-.009l-.007,0h0l-.015-.015h0l0,0-.008,0h0l-.008,0a0,0,0,0,0,0,0l0,0h0l-.007,0h-.007l-.006,0h0l-.005,0a.013.013,0,0,0-.01,0l-.218.116-.2.1-.181.1-.273.15h0c-.156.088-.31.177-.464.266h0q-.343.2-.681.4c-.086.052-.171.1-.257.159q-1.309.816-2.535,1.752h0A33.272,33.272,0,0,0,9.767,58.437a.163.163,0,1,1-.3-.132" transform="translate(572.055 339.691)" fill="#336ea8"/>
          <path id="Path_83" data-name="Path 83" d="M21.885,42v.016h-.056v.062q-1.119.515-2.191,1.1c-.189.1-.376.207-.563.312-.356.2-.707.411-1.055.624q-1.467.9-2.83,1.937A35.235,35.235,0,0,0,5.859,56.7a.171.171,0,0,0,.3.171A34.838,34.838,0,0,1,16.428,45.572q1.34-.941,2.774-1.76a0,0,0,0,0,0,0l0,0h0c.342-.194.69-.385,1.041-.568.063-.035.127-.068.19-.1.125-.065.249-.129.375-.193a0,0,0,0,0,0,0h0l.323-.159c.073-.037.147-.072.219-.107.051-.025.1-.049.151-.072.077-.038.155-.075.231-.11l.149-.069a.012.012,0,0,1,.01,0l.005,0h0l.005,0h.022l.007,0h0l.01,0h0l.008,0,0,0,0,0,.014.014H22l.033-.012.06-.022.018-.005v.008l.011-.012h0l.029-.009h.03v-.018h.045v-.029l0-.036.007,0a.183.183,0,0,0,.044-.027.172.172,0,0,0-.181-.288c-.019.008-.038.016-.056.026a.192.192,0,0,0-.023.011H22l-.016-.008-.008,0h0l-.019.005h-.007l0,.007H21.92Z" transform="translate(574.974 339.725)" fill="#2d5ea2"/>
          <path id="Path_84" data-name="Path 84" d="M19.865,41.966l-.025.008-.026.007h0v.045h0q-1.626.671-3.171,1.485-.635.332-1.253.69a36.478,36.478,0,0,0-3.267,2.113,37.2,37.2,0,0,0-8.754,8.916.18.18,0,1,0,.295.206,36.851,36.851,0,0,1,9.511-9.421,35.967,35.967,0,0,1,3.486-2.106q.608-.324,1.23-.625h0c.214-.106.43-.208.646-.307l.156-.072c.083-.039.167-.076.25-.112s.171-.077.257-.114c.062-.028.124-.056.186-.081.044-.019.086-.038.13-.056.08-.035.159-.068.238-.1.04-.018.079-.035.12-.05a.012.012,0,0,1,.01,0l.005,0h0l.005,0h.022a.026.026,0,0,0,.014,0h.011a0,0,0,0,1,0,0l.008,0a0,0,0,0,1,0,0l.036-.015.03-.012H20.1l.029-.009h.03v-.011l.021-.007h.025v-.008l.007,0v-.018l0-.023.01,0,.005,0a.145.145,0,0,0,.04-.025.178.178,0,0,0,.055-.212.181.181,0,0,0-.165-.11.191.191,0,0,0-.071.015l-.012.005h0l-.059.026L20,41.948h-.078l-.022.007Z" transform="translate(576.994 339.759)" fill="#264e9c"/>
          <path id="Path_85" data-name="Path 85" d="M1.7,53.907a39.252,39.252,0,0,1,7.957-7.332,38.772,38.772,0,0,1,3.79-2.329,39.367,39.367,0,0,1,5.012-2.269s0,0,0,0h0l.005,0h0l0,0h.006l.011,0,.023-.009h0l.016-.007.008,0,.053-.031.005,0,.008,0,.044,0h.007l.07-.028,0,0,.03-.011a.2.2,0,0,1,.063-.011.188.188,0,0,1,.177.126.185.185,0,0,1-.07.216.148.148,0,0,1-.045.024h0l-.015.005v.027l-.008,0-.007,0v.008h-.025l-.021.007v.011h-.07l0,0-.007.008-.011.009-.06.022-.033.012h-.01l-.007,0-.011-.012v0l0,0h-.011l-.018.007h0l-.008,0a.28.28,0,0,0-.042.016s0,0-.005,0l-.077.028c-.082.031-.164.061-.245.093-.04.014-.078.03-.116.045l-.159.062c-.073.027-.144.056-.215.086s-.124.049-.186.075l-.127.051c-.153.062-.308.126-.461.193-.252.106-.5.216-.75.328q-.768.344-1.52.722a39.169,39.169,0,0,0-12.659,10.1.189.189,0,0,1-.292-.239" transform="translate(578.343 339.793)" fill="#203e96"/>
          <path id="Path_86" data-name="Path 86" d="M.657,52.718a41.289,41.289,0,0,1,7.217-6.042,41.706,41.706,0,0,1,9.735-4.746h.005l.008,0,.018-.007v-.012l.025-.008.035-.009.022-.007h.007l.019-.005.011,0,.04-.012H17.8l.012-.005.07-.02h0l.044-.013a.178.178,0,0,1,.059-.009.2.2,0,0,1,.187.139.194.194,0,0,1-.081.222.138.138,0,0,1-.048.023h0c-.006,0-.008,0-.014.005v.014l-.012,0-.008,0-.007,0v.008h-.025l-.021.007v.011h-.03l-.029.009h0l-.011.012v-.008l-.018.005-.06.022-.033.012-.014-.014H17.74l-.008,0h0l-.014,0H17.7l-.005,0h0l-.006,0a.107.107,0,0,0-.022.007s0,0-.005,0c-.023.007-.046.015-.069.023-.081.027-.16.054-.239.082-.036.011-.071.023-.107.037l-.142.05-.185.066h0c-.048.016-.094.034-.142.051l-.118.042c-.12.045-.241.089-.36.136h-.005c-.178.065-.354.131-.531.2q-.454.177-.9.366-.844.354-1.67.746A41.292,41.292,0,0,0,.943,52.99a.2.2,0,0,1-.286-.272" transform="translate(579.194 339.827)" fill="#192f90"/>
          <path id="Path_87" data-name="Path 87" d="M.066,51.688A43.306,43.306,0,0,1,17.1,41.922l.022-.007h.005l.026-.007.025-.008.035-.009.022-.007h.007l.019-.005.011,0,.04-.012.018-.005.07-.02.045-.012a.173.173,0,0,1,.059-.009.2.2,0,0,1,.105.361l.067-.085c-.014.008-.085.112-.1.117l-.022.007-.007,0-.012,0-.008,0-.007,0v.008h-.025l-.021.007v.011h-.03l-.029.009h0l-.011.012v-.008l-.018.005-.06.022-.033.012h-.01L17.27,42.3h-.008l-.01,0-.009,0h-.007l-.016.005H17.2l-.006,0a.107.107,0,0,0-.022.007s0,0-.005,0l-.062.019h0c-.078.023-.155.046-.231.072-.033.009-.067.019-.1.03l-.129.04-.164.054h0c-.038.011-.075.023-.112.037l-.109.035c-.1.031-.194.064-.29.1l-.406.138h0c-.209.073-.419.146-.627.224q-.493.177-.98.368-.932.364-1.841.769a42.368,42.368,0,0,0-4.723,2.462A43.026,43.026,0,0,0,.344,51.989a.205.205,0,0,1-.278-.3" transform="translate(579.68 339.826)" fill="#131f8a"/>
          <path id="Path_88" data-name="Path 88" d="M88.5,44.023c.007,0,.019-.011.038-.019l0,0c.01-.005.021-.009.032-.016l.03-.014h0l.005,0,0,0,.008,0h.012a.008.008,0,0,1,.005,0,.227.227,0,0,1,.037-.016c.012-.005.023-.011.036-.015l.049-.018.008,0h0L88.8,43.9l.011,0,.011,0h0l.009,0,.015,0,.015,0a.165.165,0,0,1,.034-.005h.014a.033.033,0,0,1,.012,0h.007l-.007,0-.012,0-.008,0-.007,0-.045.015-.03.011-.029.009h0l-.011,0-.018.005-.06.022-.033.012h-.009l-.007,0h0l-.029.009-.015.005L88.584,44l-.014,0-.031.011-.025.009Z" transform="translate(508.307 338.164)" fill="#131f8a"/>
        </g>
      </g>
      <g id="Group_14584" data-name="Group 14584" transform="translate(1005.865 168.891)">
        <path id="Path_1" data-name="Path 1" d="M174.243,199.719l.448.852a2.384,2.384,0,0,1,.315,1.2v.694a2.9,2.9,0,0,1-.795,1.754,1.5,1.5,0,0,1-1.041.574,3.705,3.705,0,0,1-1.621-.486l.069-.215a2.238,2.238,0,0,0,.7.113,2.728,2.728,0,0,0,2.215-1.7.683.683,0,0,0,.069-.277,1.09,1.09,0,0,0-.089-.334,9.948,9.948,0,0,0-.757-1.388c.145-.272.29-.53.448-.789Zm4.01,2.3c.353-.2.5-.555.726-1a5.887,5.887,0,0,1,.574-.966h.063a16.8,16.8,0,0,0,1.2,1.432,1.812,1.812,0,0,0,1.312.681h.076v.808h-.076a1.553,1.553,0,0,1-1.281-.656l-.019.006v.1c0,.871-.429,1.306-.788,1.306a1.557,1.557,0,0,1-1.332-1.357h-.031a1.23,1.23,0,0,1-1.073.6,1.28,1.28,0,0,1-.947-.366c-.385-.391-.416-.833-.416-1.76,0-1.2-.07-2.454-.164-3.792a5.738,5.738,0,0,1,.593-.587l.044.025c.1,1.382.1,3.016.1,4.568v.36a.659.659,0,0,0,.473.675,1.272,1.272,0,0,0,.4.069A1.306,1.306,0,0,0,178.254,202.022Zm1.167-1.11a1.868,1.868,0,0,0-.309.858,1.125,1.125,0,0,0,.984,1.123.426.426,0,0,0,.341-.461.827.827,0,0,0-.215-.549c-.233-.328-.505-.631-.77-.971Zm2.918,1.255c.486,0,.991-.2,1.085-.555l.183-.682.435-.316.038.044a3.381,3.381,0,0,0-.139.732.627.627,0,0,0,.208.524,1.176,1.176,0,0,0,.783.252h.113v.808H184.9a1.27,1.27,0,0,1-1.3-.644h-.025a1.357,1.357,0,0,1-1.255.644h-.12a.405.405,0,0,1-.442-.423.393.393,0,0,1,.442-.385Zm.694-2.391c-.259-.246-.486-.448-.738-.656a5.684,5.684,0,0,1,.5-.6,5.947,5.947,0,0,1,.72.675A3.389,3.389,0,0,1,183.033,199.776Zm.341-1.344c-.259-.246-.486-.448-.738-.656a5.744,5.744,0,0,1,.5-.6,5.908,5.908,0,0,1,.719.675A3.345,3.345,0,0,1,183.374,198.432Zm.877,1.262c-.259-.246-.486-.448-.738-.656a5.685,5.685,0,0,1,.5-.6,5.948,5.948,0,0,1,.72.675A3.391,3.391,0,0,1,184.251,199.694Zm.93,2.473c.486,0,.991-.2,1.085-.555l.183-.682.435-.316.038.044a3.381,3.381,0,0,0-.139.732.627.627,0,0,0,.208.524,1.176,1.176,0,0,0,.783.252h.113v.808h-.145a1.27,1.27,0,0,1-1.3-.644h-.025a1.357,1.357,0,0,1-1.255.644h-.12a.405.405,0,0,1-.442-.423.393.393,0,0,1,.442-.385Zm.694-2.391c-.259-.246-.486-.448-.738-.656a5.682,5.682,0,0,1,.5-.6,5.908,5.908,0,0,1,.719.675A3.367,3.367,0,0,1,185.876,199.776Zm1.218-.082c-.259-.246-.486-.448-.738-.656a5.748,5.748,0,0,1,.5-.6,5.908,5.908,0,0,1,.719.675A3.366,3.366,0,0,1,187.093,199.694Zm5.877.58a7.331,7.331,0,0,1,.1,1.123,2.144,2.144,0,0,1-.227.865,1.211,1.211,0,0,1-.934.694,1.064,1.064,0,0,1-.789-.524h-.05a1.475,1.475,0,0,1-1.1.543.542.542,0,0,1-.606-.536h-.025a1.69,1.69,0,0,1-1.344.536h-.107a.405.405,0,0,1-.442-.423.393.393,0,0,1,.442-.385h.215a1.5,1.5,0,0,0,1.331-.587l.347-.5.486-.17.025.031a2.372,2.372,0,0,0-.429.909.3.3,0,0,0,.328.316,1,1,0,0,0,.561-.183c.221-.164.253-.347.448-1l.379-.221.038.025a2.778,2.778,0,0,0-.082.618.681.681,0,0,0,.656.726.3.3,0,0,0,.334-.284,5.717,5.717,0,0,0-.158-1.022,4.806,4.806,0,0,1,.568-.568Zm4.056-3.792c.038,1.23.063,2.467.063,3.7a3.885,3.885,0,0,0,.164,1.407.9.9,0,0,0,.764.58h.05v.808h-.12c-.587,0-1.306-.53-1.306-1.742l-.044-.006a2.365,2.365,0,0,1-1.376,1.628,3.17,3.17,0,0,1-1.288.252l-.688-.063-.025-.044a12.177,12.177,0,0,0,2.4-1.18,9.3,9.3,0,0,0-1.817-3.086c-.322-.435-.656-.814-.656-1.035a1.951,1.951,0,0,1,.17-.581h.032a6.933,6.933,0,0,0,1.193.9l-.215.372c.334.46.669.947,1.01,1.527a3.068,3.068,0,0,1,.5,1.35c0,.139-.013.259-.025.4l.019.006a3.131,3.131,0,0,0,.455-.543c.252-.4.252-.845.252-1.931,0-.726-.05-1.458-.082-2.2a3.215,3.215,0,0,1,.517-.537Zm-1.533,8.064a3.084,3.084,0,0,1-.246.429,6.489,6.489,0,0,0-1.641.473l-.012-.019.151-.265a.78.78,0,0,1,.29-.208v-.019a.59.59,0,0,1-.492-.549.855.855,0,0,1,.3-.555,1.2,1.2,0,0,1,.764-.36c.252,0,.4.145.4.309a.654.654,0,0,1-.2.41h-.012c-.07-.139-.133-.227-.2-.246a.829.829,0,0,0-.2-.019c-.221,0-.442.126-.442.221,0,.3.53.4.9.4.215,0,.429-.012.644-.025Zm2.711-2.379a1.423,1.423,0,0,0,.707-.17.719.719,0,0,0,.334-.682c-.013-1.01-.082-2.114-.183-3.274-.025-.29-.063-.555-.063-.789a.639.639,0,0,1,.189-.423,2.973,2.973,0,0,1,.347-.347l.044.032a2.84,2.84,0,0,0,.511,1.445,3.63,3.63,0,0,1-.4.322c.025.726.082,1.489.082,2.19a3.74,3.74,0,0,1-.252,1.584,1.279,1.279,0,0,1-.574.732,1.809,1.809,0,0,1-.788.189h-.095a.405.405,0,0,1-.442-.423.393.393,0,0,1,.442-.385Zm9.213-2.846a5.321,5.321,0,0,1,.675,2.587,2.747,2.747,0,0,1-.448,1.609,3.046,3.046,0,0,1-2.1.959,1.818,1.818,0,0,1-1.937-1.912,3.349,3.349,0,0,1,.543-1.836l.239.133a2.929,2.929,0,0,0-.353,1.18,1.4,1.4,0,0,0,.423,1.1,1.8,1.8,0,0,0,1.193.422,2.744,2.744,0,0,0,1.527-.549c.277-.215.435-.4.435-.524a3.757,3.757,0,0,0-.2-1.117,5.362,5.362,0,0,0-.53-1.243c.151-.265.3-.53.486-.795Zm-1.716-2.038a5.664,5.664,0,0,1,.757.675,2.552,2.552,0,0,1-.523.618c-.246-.233-.492-.435-.745-.65C205.361,197.7,205.531,197.479,205.7,197.284Zm7.784,5.691h-.12a1.25,1.25,0,0,1-1.287-1.028h-.032a.9.9,0,0,1-.455.605,2.5,2.5,0,0,1-1.268.423,1.03,1.03,0,0,1-1.1-1.167c0-.158.006-.309.019-.467l.246-.019a.789.789,0,0,0,.889.845,2.245,2.245,0,0,0,1.028-.316c.233-.133.411-.322.411-.473a12.472,12.472,0,0,0-.524-2.348c.145-.221.284-.448.448-.65l.038.025c.233.909.429,1.881.6,2.808a1.031,1.031,0,0,0,1,.953h.107Zm5.085-2.7a7.331,7.331,0,0,1,.1,1.123,2.144,2.144,0,0,1-.227.865,1.211,1.211,0,0,1-.934.694,1.065,1.065,0,0,1-.789-.524h-.05a1.475,1.475,0,0,1-1.1.543.542.542,0,0,1-.606-.536h-.025a1.689,1.689,0,0,1-1.344.536h-.107a.405.405,0,0,1-.442-.423.393.393,0,0,1,.442-.385h.215a1.5,1.5,0,0,0,1.332-.587l.347-.5.486-.17.025.031a2.367,2.367,0,0,0-.429.909.3.3,0,0,0,.328.316,1.007,1.007,0,0,0,.562-.183c.221-.164.252-.347.448-1l.379-.221.038.025a2.777,2.777,0,0,0-.082.618.681.681,0,0,0,.656.726.3.3,0,0,0,.334-.284,5.716,5.716,0,0,0-.158-1.022,4.845,4.845,0,0,1,.568-.568Z" transform="translate(-19.616 -41.762)" fill="#131f8a"/>
        <g id="Group_2" data-name="Group 2" transform="translate(89.035 113.826)">
          <g id="Group_14582-2" data-name="Group 14582">
            <text id="Sadan_Investments" data-name="Sadan Investments" transform="translate(32.898 57.873)" fill="#5acccc" font-size="7" font-family="ArialMT, Arial"><tspan x="0" y="0" letter-spacing="0.152em">S</tspan><tspan y="0" letter-spacing="0.151em">adan</tspan><tspan y="0" xml:space="preserve" letter-spacing="0.152em"> I</tspan><tspan y="0" letter-spacing="0.151em">n</tspan><tspan y="0" letter-spacing="0.152em">v</tspan><tspan y="0" letter-spacing="0.151em">e</tspan><tspan y="0" letter-spacing="0.152em">st</tspan><tspan y="0" letter-spacing="0.151em">men</tspan><tspan y="0" letter-spacing="0.152em">t</tspan><tspan y="0">s</tspan></text>
            <text id="SADAN" transform="translate(16.031 0) rotate(0.191)" fill="#131f8a" font-size="30" font-family="SegoeUI, Segoe UI"><tspan x="0" y="32">SA</tspan><tspan y="32" letter-spacing="-0.029em">D</tspan><tspan y="32">AN</tspan></text>
          </g>
        </g>
      </g>
    </g>
  </g>
</svg>
