<svg xmlns="http://www.w3.org/2000/svg" width="104.563" height="104.563" viewBox="0 0 104.563 104.563">
  <g id="vuesax_outline_sms" data-name="vuesax/outline/sms" transform="translate(-556 -252)">
    <g id="sms" transform="translate(556 252)">
      <path id="Vector" d="M68.619,80.6H25.051C9.149,80.6,0,71.451,0,55.549v-30.5C0,9.149,9.149,0,25.051,0H68.619c15.9,0,25.051,9.149,25.051,25.051v30.5C93.671,71.451,84.521,80.6,68.619,80.6ZM25.051,6.535c-12.46,0-18.516,6.056-18.516,18.516v30.5c0,12.46,6.056,18.516,18.516,18.516H68.619c12.46,0,18.516-6.056,18.516-18.516v-30.5c0-12.46-6.056-18.516-18.516-18.516Z" transform="translate(5.446 11.981)" fill="#131f8a"/>
      <path id="Vector-2" data-name="Vector" d="M25.063,20.154a16.2,16.2,0,0,1-10.195-3.442L1.232,5.82A3.256,3.256,0,0,1,5.284.722L18.92,11.614a10.4,10.4,0,0,0,12.243,0L44.8.722a3.215,3.215,0,0,1,4.575.523,3.215,3.215,0,0,1-.523,4.575L35.215,16.712A15.989,15.989,0,0,1,25.063,20.154Z" transform="translate(27.217 35.918)" fill="#131f8a"/>
      <path id="Vector-3" data-name="Vector" d="M0,0H104.563V104.563H0Z" fill="none" opacity="0"/>
    </g>
  </g>
</svg>
