<svg id="Group_14874" data-name="Group 14874" xmlns="http://www.w3.org/2000/svg" width="83.497" height="53.889" viewBox="0 0 83.497 53.889">
  <g id="Group_3786" data-name="Group 3786" transform="translate(0 0)" style="mix-blend-mode: normal;isolation: isolate">
    <g id="Group_3785" data-name="Group 3785">
      <g id="Group_3783" data-name="Group 3783" transform="translate(0)">
        <rect id="Rectangle_875" data-name="Rectangle 875" width="0.906" height="0.904" transform="translate(49.207 0.975)" fill="#ada9ae"/>
        <rect id="Rectangle_876" data-name="Rectangle 876" width="0.906" height="0.904" transform="translate(69.235 12.218)" fill="#ada9ae"/>
        <path id="Path_589" data-name="Path 589" d="M469.887,229.42a1.325,1.325,0,0,0,.538-.457,1.963,1.963,0,0,0,.289-.723,4.892,4.892,0,0,0,.085-.955v-6.329h-.906v6.329a4.507,4.507,0,0,1-.04.65,1.211,1.211,0,0,1-.136.429.572.572,0,0,1-.261.237,1.049,1.049,0,0,1-.425.073,1.378,1.378,0,0,1-.464-.068l-.238.87a2.779,2.779,0,0,0,.736.1A1.911,1.911,0,0,0,469.887,229.42Z" transform="translate(-389.64 -218.172)" fill="#ada9ae"/>
        <path id="Path_590" data-name="Path 590" d="M453.939,209.268H452.7v-.209a.42.42,0,0,1,.073-.265.365.365,0,0,1,.279-.079h.622v-.63h-.639a1.1,1.1,0,0,0-.8.271,1.182,1.182,0,0,0-.277.87v.738h1.984Z" transform="translate(-376.807 -208.085)" fill="#ada9ae"/>
        <rect id="Rectangle_877" data-name="Rectangle 877" width="0.906" height="0.904" transform="translate(67.423 12.218)" fill="#ada9ae"/>
        <rect id="Rectangle_878" data-name="Rectangle 878" width="0.906" height="0.904" transform="translate(51.086 0.975)" fill="#ada9ae"/>
        <path id="Path_591" data-name="Path 591" d="M438.217,226.375a3.573,3.573,0,0,0,1.194.542,5.723,5.723,0,0,0,1.438.175h.239l.3-.638v.9a1.19,1.19,0,0,1-.408,1.017,1.878,1.878,0,0,1-1.144.3,3.272,3.272,0,0,1-.753-.079,4.379,4.379,0,0,1-.764-.271l-.283.87a8.281,8.281,0,0,0,.923.288,3.474,3.474,0,0,0,.81.1,2.567,2.567,0,0,0,1.925-.627,2.345,2.345,0,0,0,.6-1.69v-6.306H440.85a4.676,4.676,0,0,0-1.528.237,3.7,3.7,0,0,0-1.183.65,2.9,2.9,0,0,0-.764.983,2.844,2.844,0,0,0-.271,1.237,2.914,2.914,0,0,0,.3,1.373A2.642,2.642,0,0,0,438.217,226.375Zm0-3.2a2.214,2.214,0,0,1,.555-.695,2.579,2.579,0,0,1,.787-.447,2.712,2.712,0,0,1,.888-.157v0h1.464l-.517.258v4.06h-.918a3.142,3.142,0,0,1-.957-.142,2.4,2.4,0,0,1-.787-.413,1.909,1.909,0,0,1-.532-.666,2.035,2.035,0,0,1-.193-.9A1.919,1.919,0,0,1,438.217,223.171Z" transform="translate(-365.167 -218.172)" fill="#ada9ae"/>
        <path id="Path_592" data-name="Path 592" d="M323.506,229.453h1.882v-.677c.018.032.036.064.056.094a1.325,1.325,0,0,0,.538.458,1.908,1.908,0,0,0,.821.158h16.515v-8.53h-.906v7.626H326.837a1.045,1.045,0,0,1-.425-.074.571.571,0,0,1-.261-.237,1.221,1.221,0,0,1-.136-.429,4.52,4.52,0,0,1-.039-.65v-6.236h-2.448a4.166,4.166,0,0,0-4.209,4.248v.024A4.127,4.127,0,0,0,323.506,229.453Zm-3.222-4.272a3.23,3.23,0,0,1,3.222-3.368h2.12l-.555.276v5.1a4.86,4.86,0,0,0,.085.955,2.185,2.185,0,0,0,.14.449h-1.767a3.269,3.269,0,0,1-3.245-3.391Z" transform="translate(-273.54 -218.172)" fill="#ada9ae"/>
        <path id="Path_593" data-name="Path 593" d="M275.7,227.172l.394,1.042-5.753-7.3h-.9V229.4h.936V223l-.533-1.237,6.024,7.636h.766v-8.489H275.7Z" transform="translate(-235.405 -218.137)" fill="#ada9ae"/>
        <path id="Path_594" data-name="Path 594" d="M321.99,292.456l5.222-4.976v-3.416H313.257v3.887h7.156l2.655-1.705-6.625,6.652.708,2.886h1.888c2.537,0,4.042.942,4.042,2.621v.058c0,1.531-1.21,2.5-2.921,2.5a6.3,6.3,0,0,1-4.986-2.474l-3.128,2.975a10.029,10.029,0,0,0,8.054,3.563c4.6,0,7.435-2.857,7.435-6.743v-.059C327.537,294.4,324.793,292.927,321.99,292.456Z" transform="translate(-268.208 -267.63)" fill="#ada9ae"/>
        <path id="Path_595" data-name="Path 595" d="M226.426,220.239a4.3,4.3,0,0,0-4.35,4.39v.024a4.338,4.338,0,1,0,8.675-.024V224.6A4.264,4.264,0,0,0,226.426,220.239Zm3.329,4.414a3.337,3.337,0,0,1-3.329,3.48,3.378,3.378,0,0,1-3.354-3.5V224.6a3.337,3.337,0,0,1,3.329-3.48,3.378,3.378,0,0,1,3.353,3.5Z" transform="translate(-198.675 -217.61)" fill="#ada9ae"/>
        <path id="Path_596" data-name="Path 596" d="M400.079,282.429a10.67,10.67,0,0,0-11,10.659v.059a10.981,10.981,0,0,0,21.951-.059v-.059A10.572,10.572,0,0,0,400.079,282.429Zm6.2,10.719a6.17,6.17,0,0,1-6.2,6.419,6.268,6.268,0,0,1-6.255-6.479v-.059a6.17,6.17,0,0,1,6.2-6.419,6.268,6.268,0,0,1,6.255,6.478Z" transform="translate(-327.527 -266.348)" fill="#ada9ae"/>
        <rect id="Rectangle_879" data-name="Rectangle 879" width="0.96" height="8.489" transform="translate(20.599 2.774)" fill="#ada9ae"/>
        <path id="Path_597" data-name="Path 597" d="M123.27,301.253l.877-.676,4.514-3.477c3.658-2.827,5.428-4.535,5.428-7.98v-.058c0-3.858-2.832-6.361-7.11-6.361-3.688,0-5.665,1.5-7.7,4.27l3.186,2.561c1.534-1.884,2.626-2.767,4.219-2.767a2.531,2.531,0,0,1,2.773,2.68c0,1.707-1,2.827-3.57,4.947l-6.875,5.624v3.593H134.3v-3.917H126.42Z" transform="translate(-118.825 -266.561)" fill="#ada9ae"/>
        <path id="Path_598" data-name="Path 598" d="M122.655,229.46l3.657-8.55h-1.032l-2.891,6.959.093.933-.24-.579-2.5-6.048-.523-1.264h-1.069l3.657,8.55Z" transform="translate(-118.147 -218.137)" fill="#ada9ae"/>
        <rect id="Rectangle_880" data-name="Rectangle 880" width="0.96" height="8.489" transform="translate(9.469 2.775)" fill="#ada9ae"/>
        <path id="Path_599" data-name="Path 599" d="M176.782,224.255c-1.871-.4-2.309-.849-2.309-1.649v-.024c0-.764.7-1.37,1.811-1.37a3.74,3.74,0,0,1,2.454.921l.559-.739a4.442,4.442,0,0,0-2.989-1.043c-1.616,0-2.795.982-2.795,2.316v.024c0,1.395.9,2.025,2.855,2.45,1.786.376,2.211.825,2.211,1.613v.024c0,.837-.753,1.443-1.9,1.443a4.055,4.055,0,0,1-2.916-1.2l-.6.7a4.98,4.98,0,0,0,3.475,1.358c1.689,0,2.9-.946,2.9-2.4v-.024C179.552,225.359,178.677,224.667,176.782,224.255Z" transform="translate(-161.271 -217.697)" fill="#ada9ae"/>
      </g>
      <g id="Group_3784" data-name="Group 3784" transform="translate(0 42.087)">
        <rect id="Rectangle_921" data-name="Rectangle 921" width="0.533" height="0.531" transform="translate(4.195 5.256)" fill="#ada9ae"/>
        <path id="Path_651" data-name="Path 651" d="M274.146,411.4v-3.512h-.518v2.994H271.67v-2.994h-.518v2.994h-2.061v-2.994h-.817a2.771,2.771,0,0,0-.882.132,2.033,2.033,0,0,0-.674.369,1.641,1.641,0,0,0-.431.56,1.62,1.62,0,0,0-.152.7,1.66,1.66,0,0,0,.175.789,1.578,1.578,0,0,0,.467.544,2.015,2.015,0,0,0,.68.317,3.143,3.143,0,0,0,.817.1Zm-6.633-.6a1.359,1.359,0,0,1-.447-.243,1.135,1.135,0,0,1-.3-.388,1.189,1.189,0,0,1-.111-.521,1.081,1.081,0,0,1,.12-.508,1.281,1.281,0,0,1,.317-.395,1.431,1.431,0,0,1,.45-.252,1.583,1.583,0,0,1,.518-.087h.512v2.477h-.512A1.748,1.748,0,0,1,267.512,410.8Z" transform="translate(-232.794 -406.755)" fill="#ada9ae"/>
        <rect id="Rectangle_922" data-name="Rectangle 922" width="0.518" height="4.643" transform="translate(30.018 0)" fill="#ada9ae"/>
        <rect id="Rectangle_923" data-name="Rectangle 923" width="0.533" height="0.531" transform="translate(35.725 0)" fill="#ada9ae"/>
        <rect id="Rectangle_924" data-name="Rectangle 924" width="0.533" height="0.531" transform="translate(40.98 5.25)" fill="#ada9ae"/>
        <rect id="Rectangle_925" data-name="Rectangle 925" width="0.533" height="0.531" transform="translate(5.103 5.256)" fill="#ada9ae"/>
        <path id="Path_652" data-name="Path 652" d="M181.4,406.784h-.848a1.616,1.616,0,0,1-.713-.129.958.958,0,0,1-.408-.388,2.216,2.216,0,0,0,.045-.485v-1.669h-.518v1.753a1.033,1.033,0,0,1-.24.715.924.924,0,0,1-.726.268,1.163,1.163,0,0,1-.415-.071,1.018,1.018,0,0,1-.324-.194.91.91,0,0,1-.214-.288.885.885,0,0,1-.084-.353v-1.831h-.519V405.9a1.018,1.018,0,0,1-.071.4.745.745,0,0,1-.194.272.771.771,0,0,1-.279.155,1.1,1.1,0,0,1-.331.048h-1v-2.671h-.518v2.671h-2.722l.907-2.167a4.623,4.623,0,0,0-.441-.34,3.892,3.892,0,0,0-.48-.278,2.825,2.825,0,0,0-.5-.188,1.918,1.918,0,0,0-.5-.068,1.943,1.943,0,0,0-.505.068,3.078,3.078,0,0,0-.5.184,3.178,3.178,0,0,0-.48.278,4.511,4.511,0,0,0-.431.343l.914,2.167h-1.8V403.79h-.829a2.684,2.684,0,0,0-.875.135,2.115,2.115,0,0,0-.677.372,1.652,1.652,0,0,0-.437.563,1.622,1.622,0,0,0-.156.708,1.668,1.668,0,0,0,.172.786,1.509,1.509,0,0,0,.467.537,2.035,2.035,0,0,0,.684.31,3.277,3.277,0,0,0,.823.1h.311v.149a.681.681,0,0,1-.233.582,1.073,1.073,0,0,1-.655.175,1.882,1.882,0,0,1-.431-.045,2.534,2.534,0,0,1-.437-.156l-.162.5a4.7,4.7,0,0,0,.528.165,1.991,1.991,0,0,0,.463.055,1.47,1.47,0,0,0,1.1-.359,1.342,1.342,0,0,0,.343-.968v-.1h8.056a1.374,1.374,0,0,0,.671-.162,1.331,1.331,0,0,0,.476-.433,1.316,1.316,0,0,0,.512.485,1.608,1.608,0,0,0,.771.175,1.776,1.776,0,0,0,.794-.162,1.107,1.107,0,0,0,.5-.5,1.42,1.42,0,0,0,.159.217.922.922,0,0,0,.243.191,1.43,1.43,0,0,0,.36.136,1.951,1.951,0,0,0,.373.045v.006h1.5v-4.643H181.4Zm-14.413,0h-.525a1.813,1.813,0,0,1-.548-.08,1.376,1.376,0,0,1-.451-.236,1.092,1.092,0,0,1-.3-.382,1.167,1.167,0,0,1-.11-.518,1.1,1.1,0,0,1,.12-.511,1.263,1.263,0,0,1,.318-.4,1.48,1.48,0,0,1,.45-.255,1.549,1.549,0,0,1,.525-.09h.525Zm2.858,0-.81-1.986a2.058,2.058,0,0,1,.613-.369,1.871,1.871,0,0,1,.658-.116,1.834,1.834,0,0,1,.693.139,2.068,2.068,0,0,1,.583.346l-.81,1.986Z" transform="translate(-154.495 -402.659)" fill="#ada9ae"/>
        <rect id="Rectangle_926" data-name="Rectangle 926" width="0.533" height="0.531" transform="translate(2.42 0)" fill="#ada9ae"/>
        <rect id="Rectangle_927" data-name="Rectangle 927" width="0.533" height="0.531" transform="translate(56.921 0)" fill="#ada9ae"/>
        <rect id="Rectangle_928" data-name="Rectangle 928" width="0.518" height="4.643" transform="translate(52.156 0)" fill="#ada9ae"/>
        <rect id="Rectangle_929" data-name="Rectangle 929" width="0.533" height="0.531" transform="translate(34.783 0)" fill="#ada9ae"/>
        <path id="Path_653" data-name="Path 653" d="M150.039,409.361a1.924,1.924,0,0,0-.081-.569,1.186,1.186,0,0,0-.249-.453,1.4,1.4,0,0,0-.464-.34,1.544,1.544,0,0,0-.625-.113h-.382v.517h.454a.816.816,0,0,1,.356.081.838.838,0,0,1,.279.21.789.789,0,0,1,.152.3,1.565,1.565,0,0,1,.042.388v1.5H147.09v.518h2.949Z" transform="translate(-140.829 -406.755)" fill="#ada9ae"/>
        <rect id="Rectangle_930" data-name="Rectangle 930" width="0.518" height="4.643" transform="translate(80.64 0)" fill="#ada9ae"/>
        <rect id="Rectangle_931" data-name="Rectangle 931" width="0.533" height="0.531" transform="translate(57.863 0)" fill="#ada9ae"/>
        <path id="Path_654" data-name="Path 654" d="M387.616,402.659H387.1v4.125h-1.782a1.818,1.818,0,0,0,.162-.763,1.912,1.912,0,0,0-.146-.747,1.828,1.828,0,0,0-1-1,1.924,1.924,0,0,0-.749-.145,1.78,1.78,0,0,0-.726.149,1.853,1.853,0,0,0-.978,1,1.9,1.9,0,0,0-.143.737,1.833,1.833,0,0,0,.042.4,2.221,2.221,0,0,0,.113.365h-1.607a1.818,1.818,0,0,0,.162-.763,1.908,1.908,0,0,0-.146-.747,1.828,1.828,0,0,0-1-1,1.926,1.926,0,0,0-.749-.145,1.779,1.779,0,0,0-.725.149,1.855,1.855,0,0,0-.979,1,1.9,1.9,0,0,0-.143.737,1.833,1.833,0,0,0,.042.4,2.224,2.224,0,0,0,.113.365h-1.646v-4.125H374.7v4.125h-1.652v-.792a2.023,2.023,0,0,0-.078-.566,1.145,1.145,0,0,0-.246-.456,1.3,1.3,0,0,0-.454-.337,1.621,1.621,0,0,0-.642-.11h-2.294l.976-1.865h-.564l-1,1.858a1.142,1.142,0,0,0,.081.291.913.913,0,0,0,.152.233h2.644a1.091,1.091,0,0,1,.425.075.742.742,0,0,1,.288.2.69.69,0,0,1,.149.3,1.649,1.649,0,0,1,.039.375v.792h-4.8V403.79h-.817a2.772,2.772,0,0,0-.881.132,2.031,2.031,0,0,0-.674.369,1.642,1.642,0,0,0-.431.56,1.62,1.62,0,0,0-.152.7,1.66,1.66,0,0,0,.175.789,1.579,1.579,0,0,0,.467.544,2.012,2.012,0,0,0,.68.317,3.143,3.143,0,0,0,.817.1H377.2a1.863,1.863,0,0,0,.6.43,1.8,1.8,0,0,0,.755.159,1.933,1.933,0,0,0,.775-.156,1.822,1.822,0,0,0,.619-.433h2.281a1.866,1.866,0,0,0,.6.43,1.794,1.794,0,0,0,.755.159,1.933,1.933,0,0,0,.775-.156,1.828,1.828,0,0,0,.619-.433h2.637Zm-20.4,4.125H366.7a1.747,1.747,0,0,1-.548-.084,1.357,1.357,0,0,1-.447-.243,1.133,1.133,0,0,1-.3-.388,1.182,1.182,0,0,1-.111-.521,1.081,1.081,0,0,1,.12-.508,1.293,1.293,0,0,1,.318-.395,1.43,1.43,0,0,1,.45-.252,1.584,1.584,0,0,1,.518-.087h.512Zm12.608-.229a1.307,1.307,0,0,1-.726.712,1.448,1.448,0,0,1-.542.1,1.3,1.3,0,0,1-.528-.107,1.321,1.321,0,0,1-.421-.291,1.346,1.346,0,0,1-.279-.43,1.378,1.378,0,0,1-.1-.524,1.4,1.4,0,0,1,.1-.527,1.364,1.364,0,0,1,.276-.433,1.3,1.3,0,0,1,.417-.294,1.281,1.281,0,0,1,.535-.11,1.425,1.425,0,0,1,.548.1,1.363,1.363,0,0,1,.434.285,1.292,1.292,0,0,1,.289.43,1.411,1.411,0,0,1,.1.547A1.351,1.351,0,0,1,379.823,406.555Zm5.029,0a1.307,1.307,0,0,1-.726.712,1.446,1.446,0,0,1-.541.1,1.3,1.3,0,0,1-.528-.107,1.321,1.321,0,0,1-.421-.291,1.346,1.346,0,0,1-.278-.43,1.37,1.37,0,0,1-.1-.524,1.4,1.4,0,0,1,.1-.527,1.355,1.355,0,0,1,.276-.433,1.3,1.3,0,0,1,.418-.294,1.278,1.278,0,0,1,.535-.11,1.425,1.425,0,0,1,.548.1,1.369,1.369,0,0,1,.434.285,1.293,1.293,0,0,1,.288.43,1.4,1.4,0,0,1,.1.547A1.35,1.35,0,0,1,384.852,406.555Z" transform="translate(-308.487 -402.659)" fill="#ada9ae"/>
        <path id="Path_655" data-name="Path 655" d="M119.468,411.294a3.144,3.144,0,0,0,.816.1h3.4v-3.512h-.518v2.994H121.1v-2.994h-.817a2.772,2.772,0,0,0-.881.132,2.037,2.037,0,0,0-.674.369,1.644,1.644,0,0,0-.431.56,1.62,1.62,0,0,0-.152.7,1.658,1.658,0,0,0,.175.789,1.576,1.576,0,0,0,.466.544A2.012,2.012,0,0,0,119.468,411.294Zm-.8-1.649a1.084,1.084,0,0,1,.12-.508,1.3,1.3,0,0,1,.318-.395,1.432,1.432,0,0,1,.451-.252,1.583,1.583,0,0,1,.518-.087h.512v2.477h-.512a1.745,1.745,0,0,1-.548-.084,1.355,1.355,0,0,1-.447-.243,1.14,1.14,0,0,1-.3-.388A1.192,1.192,0,0,1,118.664,409.645Z" transform="translate(-118.146 -406.755)" fill="#ada9ae"/>
        <rect id="Rectangle_932" data-name="Rectangle 932" width="0.533" height="0.531" transform="translate(39.013 5.256)" fill="#ada9ae"/>
        <rect id="Rectangle_933" data-name="Rectangle 933" width="0.533" height="0.531" transform="translate(38.071 5.256)" fill="#ada9ae"/>
        <path id="Path_656" data-name="Path 656" d="M307.56,407.958a2.8,2.8,0,0,0,.049-.547v-.11h6.669v-4.643h-.519v4.125h-2.2l.907-2.167a4.617,4.617,0,0,0-.44-.34,3.9,3.9,0,0,0-.48-.278,2.825,2.825,0,0,0-.5-.188,1.915,1.915,0,0,0-.5-.068,1.948,1.948,0,0,0-.506.068,3.051,3.051,0,0,0-.5.184,3.158,3.158,0,0,0-.48.278,4.559,4.559,0,0,0-.431.343l.914,2.167h-1.931V403.79h-.519v3.622a2.617,2.617,0,0,1-.022.372.69.69,0,0,1-.078.246.323.323,0,0,1-.149.136.6.6,0,0,1-.243.042,1.067,1.067,0,0,1-.123-.006,1.008,1.008,0,0,1-.142-.032l-.136.5a1.594,1.594,0,0,0,.421.058,1.089,1.089,0,0,0,.47-.091.757.757,0,0,0,.308-.262A1.117,1.117,0,0,0,307.56,407.958Zm1.714-3.16a2.058,2.058,0,0,1,.613-.369,1.871,1.871,0,0,1,.658-.116,1.831,1.831,0,0,1,.693.139,2.077,2.077,0,0,1,.584.346l-.81,1.986h-.927Z" transform="translate(-263.828 -402.659)" fill="#ada9ae"/>
        <rect id="Rectangle_934" data-name="Rectangle 934" width="0.533" height="0.531" transform="translate(1.512 0)" fill="#ada9ae"/>
        <path id="Path_657" data-name="Path 657" d="M123.7,439.842h-.8l-1.761,1.858v-1.858h-.651v3.7h.651v-1.072l.577-.591,1.264,1.663h.788l-1.608-2.107Z" transform="translate(-119.986 -431.799)" fill="#ada9ae"/>
        <rect id="Rectangle_935" data-name="Rectangle 935" width="0.651" height="3.696" transform="translate(4.381 8.043)" fill="#ada9ae"/>
        <path id="Path_658" data-name="Path 658" d="M148.629,442.4l-1.984-2.556h-.6v3.7h.64v-2.629l2.042,2.629h.545v-3.7h-.64Z" transform="translate(-140.008 -431.799)" fill="#ada9ae"/>
        <path id="Path_659" data-name="Path 659" d="M166.575,441.808h.947v.692a1.513,1.513,0,0,1-.894.28,1.235,1.235,0,0,1-1.259-1.32v-.011a1.251,1.251,0,0,1,1.2-1.3,1.453,1.453,0,0,1,1.037.4l.412-.491a2,2,0,0,0-1.423-.5,1.885,1.885,0,0,0-1.91,1.912v.011a1.836,1.836,0,0,0,1.92,1.9,2.362,2.362,0,0,0,1.545-.576v-1.552h-1.577Z" transform="translate(-154.619 -431.569)" fill="#ada9ae"/>
        <path id="Path_660" data-name="Path 660" d="M186.242,439.843h-1.381v3.7h1.381a1.853,1.853,0,0,0,1.968-1.848v-.01A1.844,1.844,0,0,0,186.242,439.843Zm1.285,1.858a1.205,1.205,0,0,1-1.285,1.246h-.73v-2.513h.73a1.214,1.214,0,0,1,1.285,1.257Z" transform="translate(-169.868 -431.8)" fill="#ada9ae"/>
        <path id="Path_661" data-name="Path 661" d="M205.1,439.548a1.9,1.9,0,0,0-1.941,1.912v.011a1.936,1.936,0,0,0,3.872-.011v-.011A1.878,1.878,0,0,0,205.1,439.548Zm1.249,1.922a1.25,1.25,0,0,1-1.249,1.3,1.267,1.267,0,0,1-1.259-1.315v-.011a1.25,1.25,0,0,1,1.248-1.3,1.267,1.267,0,0,1,1.259,1.314Z" transform="translate(-184.049 -431.569)" fill="#ada9ae"/>
        <path id="Path_662" data-name="Path 662" d="M226.621,441.59l-1.127-1.748H224.8v3.7h.64V440.9l1.159,1.732h.021l1.169-1.742v2.651h.651v-3.7h-.693Z" transform="translate(-200.828 -431.799)" fill="#ada9ae"/>
        <path id="Path_663" data-name="Path 663" d="M254.557,439.548a1.9,1.9,0,0,0-1.941,1.912v.011a1.936,1.936,0,0,0,3.872-.011v-.011A1.878,1.878,0,0,0,254.557,439.548Zm1.249,1.922a1.25,1.25,0,0,1-1.249,1.3,1.267,1.267,0,0,1-1.259-1.315v-.011a1.25,1.25,0,0,1,1.249-1.3,1.267,1.267,0,0,1,1.259,1.314Z" transform="translate(-222.388 -431.569)" fill="#ada9ae"/>
        <path id="Path_664" data-name="Path 664" d="M274.258,443.538h.651v-1.5h1.867v-.591h-1.867v-1.008h2.105v-.591h-2.756Z" transform="translate(-239.184 -431.799)" fill="#ada9ae"/>
        <path id="Path_665" data-name="Path 665" d="M298.172,441.2c-.709-.169-.878-.3-.878-.58v-.011c0-.243.222-.438.6-.438a1.684,1.684,0,0,1,1.005.38l.349-.491a2.055,2.055,0,0,0-1.344-.465,1.132,1.132,0,0,0-1.265,1.071v.011c0,.682.444.914,1.233,1.1.688.159.836.3.836.566v.01c0,.28-.254.465-.656.465a1.706,1.706,0,0,1-1.169-.481l-.391.465a2.284,2.284,0,0,0,1.545.592c.778,0,1.323-.412,1.323-1.1v-.011C299.362,441.674,298.955,441.394,298.172,441.2Z" transform="translate(-256.423 -431.609)" fill="#ada9ae"/>
        <path id="Path_666" data-name="Path 666" d="M313.067,439.72l-1.63,3.722h.667l.38-.892h1.751l.375.892h.688l-1.629-3.722Zm-.344,2.255.635-1.478.64,1.478Z" transform="translate(-267.986 -431.703)" fill="#ada9ae"/>
        <path id="Path_667" data-name="Path 667" d="M333.579,441.969c0,.681-.354,1.029-.931,1.029s-.936-.369-.936-1.056v-2.1h-.651v2.128a1.458,1.458,0,0,0,1.576,1.626,1.477,1.477,0,0,0,1.593-1.658v-2.1h-.651Z" transform="translate(-283.215 -431.798)" fill="#ada9ae"/>
        <path id="Path_668" data-name="Path 668" d="M351.494,439.843h-1.381v3.7h1.381a1.853,1.853,0,0,0,1.968-1.848v-.01A1.844,1.844,0,0,0,351.494,439.843Zm1.285,1.858a1.205,1.205,0,0,1-1.285,1.246h-.73v-2.513h.73a1.214,1.214,0,0,1,1.285,1.257Z" transform="translate(-297.981 -431.8)" fill="#ada9ae"/>
        <rect id="Rectangle_936" data-name="Rectangle 936" width="0.651" height="3.696" transform="translate(56.394 8.043)" fill="#ada9ae"/>
        <path id="Path_669" data-name="Path 669" d="M384.49,439.72l-1.63,3.722h.667l.38-.892h1.751l.375.892h.688l-1.629-3.722Zm-.344,2.255.635-1.478.64,1.478Z" transform="translate(-323.354 -431.703)" fill="#ada9ae"/>
        <path id="Path_670" data-name="Path 670" d="M406.584,441.02v-.011a1.117,1.117,0,0,0-.307-.8,1.5,1.5,0,0,0-1.069-.369h-1.65v3.7h.651V442.25h.814l.91,1.289h.767l-1-1.4A1.11,1.11,0,0,0,406.584,441.02Zm-2.375.655v-1.241h.947c.482,0,.767.217.767.613v.01c0,.375-.3.618-.762.618Z" transform="translate(-339.422 -431.8)" fill="#ada9ae"/>
        <path id="Path_671" data-name="Path 671" d="M421.927,439.72l-1.629,3.722h.667l.38-.892H423.1l.375.892h.688l-1.629-3.722Zm-.344,2.255.635-1.478.64,1.478Z" transform="translate(-351.998 -431.703)" fill="#ada9ae"/>
        <path id="Path_672" data-name="Path 672" d="M443.343,441.616a.88.88,0,0,0,.529-.824v-.011a.828.828,0,0,0-.249-.612,1.338,1.338,0,0,0-.968-.328h-1.661v3.7h1.714c.825,0,1.37-.354,1.37-1.014v-.011A.907.907,0,0,0,443.343,441.616Zm-1.709-1.2h.936c.418,0,.651.18.651.47v.011c0,.338-.281.5-.7.5h-.889Zm1.793,2.038c0,.332-.27.507-.714.507h-1.079v-1.014h1.032c.513,0,.761.185.761.5Z" transform="translate(-368.217 -431.799)" fill="#ada9ae"/>
        <rect id="Rectangle_937" data-name="Rectangle 937" width="0.651" height="3.696" transform="translate(76.667 8.043)" fill="#ada9ae"/>
        <path id="Path_673" data-name="Path 673" d="M467.089,439.72h-.6l-1.63,3.722h.667l.38-.892h1.751l.375.892h.688Zm-.947,2.255.635-1.478.64,1.478Z" transform="translate(-386.918 -431.703)" fill="#ada9ae"/>
      </g>
      <g id="Group_10236" data-name="Group 10236" transform="translate(16.999 12.689)">
        <path id="Path_3250" data-name="Path 3250" d="M243.107,276.161l1.048,1-1.005,1.045-1.047-1Z" transform="translate(-231.406 -274.125)" fill="#0c0d5c"/>
        <path id="Path_3251" data-name="Path 3251" d="M257.81,277.206l1.047,1,1.005-1.045-1.047-1Z" transform="translate(-243.717 -274.125)" fill="#a59f99"/>
        <path id="Path_3252" data-name="Path 3252" d="M251,284.126l.816.781.782-.814-.815-.781Z" transform="translate(-238.381 -279.729)" fill="#c2dc18"/>
        <path id="Path_3253" data-name="Path 3253" d="M264.805,286.188l.815.781.782-.814-.815-.781Z" transform="translate(-249.199 -281.345)" fill="#64ad22"/>
        <path id="Path_3254" data-name="Path 3254" d="M244.844,289.87l.816.781.782-.814-.815-.781Z" transform="translate(-233.555 -284.231)" fill="#c2dc18"/>
        <path id="Path_3255" data-name="Path 3255" d="M257.477,290.307l.815.781.783-.814-.815-.781Z" transform="translate(-243.456 -284.573)" fill="#49aca0"/>
        <path id="Path_3256" data-name="Path 3256" d="M252.537,295.5l.574.55.55-.573-.574-.55Z" transform="translate(-239.584 -288.834)" fill="#64ad22"/>
        <path id="Path_3257" data-name="Path 3257" d="M262.526,297.5l.574.55.551-.573-.574-.549Z" transform="translate(-247.412 -290.396)" fill="#52a73b"/>
        <rect id="Rectangle_2034" data-name="Rectangle 2034" width="1.809" height="1.806" transform="matrix(0.984, -0.18, 0.18, 0.984, 19.832, 2.75)" fill="#3b6eb1"/>
        <rect id="Rectangle_2035" data-name="Rectangle 2035" width="1.451" height="1.449" transform="translate(17.513 3.492) rotate(-10.377)" fill="#0a1250"/>
        <rect id="Rectangle_2036" data-name="Rectangle 2036" width="1.451" height="1.449" transform="translate(20.269 5.476) rotate(-10.392)" fill="#49aca0"/>
        <rect id="Rectangle_2037" data-name="Rectangle 2037" width="1.13" height="1.128" transform="matrix(0.984, -0.18, 0.18, 0.984, 18.303, 5.683)" fill="#c2dc18"/>
        <rect id="Rectangle_2038" data-name="Rectangle 2038" width="1.13" height="1.128" transform="matrix(0.984, -0.18, 0.18, 0.984, 20.463, 7.789)" fill="#a59f99"/>
        <rect id="Rectangle_2039" data-name="Rectangle 2039" width="1.13" height="1.128" transform="matrix(0.984, -0.18, 0.18, 0.984, 16.64, 6.134)" fill="#49aca0"/>
        <rect id="Rectangle_2040" data-name="Rectangle 2040" width="1.13" height="1.128" transform="matrix(0.984, -0.18, 0.18, 0.984, 18.655, 7.585)" fill="#64ad22"/>
        <rect id="Rectangle_2041" data-name="Rectangle 2041" width="0.795" height="0.794" transform="translate(17.241 7.72) rotate(-10.388)" fill="#a59f99"/>
        <rect id="Rectangle_2042" data-name="Rectangle 2042" width="0.795" height="0.793" transform="translate(18.741 9.331) rotate(-10.359)" fill="#52a73b"/>
        <path id="Path_3258" data-name="Path 3258" d="M305.966,306.321l-.778,1.631,1.634.776.777-1.631Z" transform="translate(-280.849 -297.762)" fill="#0c0d5c"/>
        <path id="Path_3259" data-name="Path 3259" d="M295.815,302.843l-.624,1.308,1.311.622.624-1.308Z" transform="translate(-273.014 -295.036)" fill="#49aca0"/>
        <path id="Path_3260" data-name="Path 3260" d="M300.767,317.72l-.624,1.309,1.311.622.624-1.308Z" transform="translate(-276.895 -306.696)" fill="#64ad22"/>
        <path id="Path_3261" data-name="Path 3261" d="M293.337,313.191l-.485,1.019,1.021.485.486-1.019Z" transform="translate(-271.179 -303.146)" fill="#c2dc18"/>
        <path id="Path_3262" data-name="Path 3262" d="M295.728,326.915l-.486,1.019,1.02.485.486-1.019Z" transform="translate(-273.053 -313.902)" fill="#c2dc18"/>
        <path id="Path_3263" data-name="Path 3263" d="M285.878,310.391l-.486,1.019,1.021.485.486-1.019Z" transform="translate(-265.333 -300.951)" fill="#3b6eb1"/>
        <path id="Path_3264" data-name="Path 3264" d="M289.5,321.272l-.486,1.019,1.02.485.486-1.019Z" transform="translate(-268.173 -309.479)" fill="#a59f99"/>
        <path id="Path_3265" data-name="Path 3265" d="M284.354,317.956l-.342.717.718.341.342-.716Z" transform="translate(-264.251 -306.88)" fill="#64ad22"/>
        <rect id="Rectangle_2043" data-name="Rectangle 2043" width="0.794" height="0.795" transform="matrix(0.43, -0.903, 0.903, 0.43, 20.033, 13.975)" fill="#49aca0"/>
        <path id="Path_3266" data-name="Path 3266" d="M307.105,342.374l-1.586.868.87,1.583,1.586-.868Z" transform="translate(-281.109 -326.018)" fill="#3b6eb1"/>
        <path id="Path_3267" data-name="Path 3267" d="M301.6,333.3l-1.272.7.7,1.27,1.272-.7Z" transform="translate(-277.037 -318.906)" fill="#49aca0"/>
        <path id="Path_3268" data-name="Path 3268" d="M296.891,348.257l-1.273.7.7,1.27,1.272-.7Z" transform="translate(-273.349 -330.628)" fill="#49aca0"/>
        <path id="Path_3269" data-name="Path 3269" d="M294.135,339.953l-.991.543.543.989.991-.542Z" transform="translate(-271.409 -324.12)" fill="#0c0d5c"/>
        <path id="Path_3270" data-name="Path 3270" d="M288.029,352.479l-.991.543.544.989.991-.542Z" transform="translate(-266.623 -333.936)" fill="#52a73b"/>
        <path id="Path_3271" data-name="Path 3271" d="M289.727,333.326l-.991.542.544.99.992-.543Z" transform="translate(-267.954 -318.926)" fill="#0a1250"/>
        <path id="Path_3272" data-name="Path 3272" d="M286.286,344.266l-.991.543.544.989.991-.542Z" transform="translate(-265.257 -327.5)" fill="#c2dc18"/>
        <path id="Path_3273" data-name="Path 3273" d="M284.7,338.268l-.7.382.383.7.7-.381Z" transform="translate(-264.241 -322.799)" fill="#a59f99"/>
        <path id="Path_3274" data-name="Path 3274" d="M279.8,347.184l-.7.382.382.7.7-.381Z" transform="translate(-260.404 -329.786)" fill="#49aca0"/>
        <rect id="Rectangle_2044" data-name="Rectangle 2044" width="1.806" height="1.81" transform="matrix(0.123, -0.992, 0.992, 0.123, 20.122, 24.764)" fill="#64ad22"/>
        <rect id="Rectangle_2045" data-name="Rectangle 2045" width="1.449" height="1.451" transform="matrix(0.123, -0.992, 0.992, 0.123, 20.507, 22.022)" fill="#0a1250"/>
        <rect id="Rectangle_2046" data-name="Rectangle 2046" width="1.449" height="1.452" transform="matrix(0.123, -0.992, 0.992, 0.123, 17.785, 24.052)" fill="#49aca0"/>
        <rect id="Rectangle_2047" data-name="Rectangle 2047" width="1.128" height="1.13" transform="translate(18.534 21.84) rotate(-82.955)" fill="#64ad22"/>
        <rect id="Rectangle_2048" data-name="Rectangle 2048" width="1.128" height="1.13" transform="translate(15.875 23.266) rotate(-82.955)" fill="#a59f99"/>
        <rect id="Rectangle_2049" data-name="Rectangle 2049" width="1.128" height="1.13" transform="translate(18.601 20.121) rotate(-82.937)" fill="#a59f99"/>
        <rect id="Rectangle_2050" data-name="Rectangle 2050" width="1.128" height="1.13" transform="translate(16.61 21.605) rotate(-82.937)" fill="#64ad22"/>
        <rect id="Rectangle_2051" data-name="Rectangle 2051" width="0.793" height="0.795" transform="matrix(0.123, -0.992, 0.992, 0.123, 17.279, 19.928)" fill="#a59f99"/>
        <rect id="Rectangle_2052" data-name="Rectangle 2052" width="0.793" height="0.795" transform="matrix(0.123, -0.992, 0.992, 0.123, 15.289, 20.873)" fill="#a59f99"/>
        <path id="Path_3275" data-name="Path 3275" d="M252.76,384.758l-1.326-1.229-1.231,1.324,1.326,1.229Z" transform="translate(-237.756 -358.272)" fill="#c2dc18"/>
        <path id="Path_3276" data-name="Path 3276" d="M251.632,267.976l-1.326-1.229-1.231,1.324L250.4,269.3Z" transform="translate(-236.872 -266.747)" fill="#64ad22"/>
        <path id="Path_3277" data-name="Path 3277" d="M261.122,376.483l-1.064-.986-.987,1.062,1.064.985Z" transform="translate(-244.705 -351.977)" fill="#49aca0"/>
        <path id="Path_3278" data-name="Path 3278" d="M245.415,376.744l-1.064-.986-.987,1.062,1.064.985Z" transform="translate(-232.395 -352.181)" fill="#64ad22"/>
        <path id="Path_3279" data-name="Path 3279" d="M253.763,371.338l-.829-.768-.769.826.828.768Z" transform="translate(-239.294 -348.115)" fill="#3b6eb1"/>
        <path id="Path_3280" data-name="Path 3280" d="M239.929,369.5l-.828-.767-.769.826.829.768Z" transform="translate(-228.452 -346.677)" fill="#c2dc18"/>
        <path id="Path_3281" data-name="Path 3281" d="M258.674,365.074l-.828-.768-.769.826.828.768Z" transform="translate(-243.142 -343.206)" fill="#c2dc18"/>
        <path id="Path_3282" data-name="Path 3282" d="M247.188,365.264l-.829-.767-.769.826.828.768Z" transform="translate(-234.141 -343.355)" fill="#a59f99"/>
        <path id="Path_3283" data-name="Path 3283" d="M253.768,361.683l-.583-.54-.541.582.583.54Z" transform="translate(-239.668 -340.726)" fill="#0a1250"/>
        <path id="Path_3284" data-name="Path 3284" d="M243.745,359.857l-.583-.54-.541.581.583.54Z" transform="translate(-231.813 -339.295)" fill="#a59f99"/>
        <rect id="Rectangle_2053" data-name="Rectangle 2053" width="1.809" height="1.806" transform="matrix(0.981, -0.197, 0.197, 0.981, 5.158, 23.573)" fill="#3b6eb1"/>
        <rect id="Rectangle_2054" data-name="Rectangle 2054" width="1.451" height="1.449" transform="translate(7.885 23.072) rotate(-11.326)" fill="#49aca0"/>
        <rect id="Rectangle_2055" data-name="Rectangle 2055" width="1.451" height="1.449" transform="translate(5.097 21.134) rotate(-11.342)" fill="#64ad22"/>
        <rect id="Rectangle_2056" data-name="Rectangle 2056" width="1.13" height="1.128" transform="translate(7.437 21.146) rotate(-11.326)" fill="#c2dc18"/>
        <rect id="Rectangle_2057" data-name="Rectangle 2057" width="1.13" height="1.128" transform="translate(9.092 20.668) rotate(-11.326)" fill="#0c0d5c"/>
        <rect id="Rectangle_2058" data-name="Rectangle 2058" width="1.13" height="1.128" transform="translate(7.053 19.25) rotate(-11.326)" fill="#3b6eb1"/>
        <rect id="Rectangle_2059" data-name="Rectangle 2059" width="0.795" height="0.794" transform="translate(8.859 19.355) rotate(-11.317)" fill="#64ad22"/>
        <rect id="Rectangle_2060" data-name="Rectangle 2060" width="0.795" height="0.794" transform="translate(7.333 17.768) rotate(-11.345)" fill="#a59f99"/>
        <path id="Path_3285" data-name="Path 3285" d="M195.5,347.168l.75-1.643-1.647-.749-.75,1.643Z" transform="translate(-193.591 -327.9)" fill="#49aca0"/>
        <path id="Path_3286" data-name="Path 3286" d="M207.438,352.181l.6-1.318-1.321-.6-.6,1.318Z" transform="translate(-203.205 -332.199)" fill="#c2dc18"/>
        <path id="Path_3287" data-name="Path 3287" d="M202.239,337.385l.6-1.318-1.321-.6-.6,1.319Z" transform="translate(-199.13 -320.603)" fill="#3b6eb1"/>
        <rect id="Rectangle_2061" data-name="Rectangle 2061" width="1.129" height="1.13" transform="translate(3.812 17.265) rotate(-65.484)" fill="#49aca0"/>
        <path id="Path_3288" data-name="Path 3288" d="M217.656,355.171l.469-1.026-1.029-.467-.469,1.026Z" transform="translate(-211.441 -334.875)" fill="#a59f99"/>
        <rect id="Rectangle_2062" data-name="Rectangle 2062" width="1.129" height="1.13" transform="translate(3.246 14.305) rotate(-65.476)" fill="#0c0d5c"/>
        <rect id="Rectangle_2063" data-name="Rectangle 2063" width="1.129" height="1.13" transform="translate(5.435 17.843) rotate(-65.476)" fill="#52a73b"/>
        <rect id="Rectangle_2064" data-name="Rectangle 2064" width="1.129" height="1.13" transform="translate(4.612 15.503) rotate(-65.457)" fill="#c2dc18"/>
        <path id="Path_3289" data-name="Path 3289" d="M221.827,340l.33-.722-.724-.329-.33.722Z" transform="translate(-214.949 -323.332)" fill="#0a1250"/>
        <path id="Path_3290" data-name="Path 3290" d="M220.4,329.932l.33-.722-.724-.329-.33.722Z" transform="translate(-213.834 -315.442)" fill="#64ad22"/>
        <path id="Path_3291" data-name="Path 3291" d="M193.547,310.93l1.572-.894-.9-1.569-1.572.894Z" transform="translate(-192.65 -299.444)" fill="#49aca0"/>
        <path id="Path_3292" data-name="Path 3292" d="M200.982,321.655l1.261-.717-.72-1.259-1.261.718Z" transform="translate(-198.616 -308.231)" fill="#64ad22"/>
        <path id="Path_3293" data-name="Path 3293" d="M205.439,306.62l1.261-.718-.72-1.259-1.261.718Z" transform="translate(-202.109 -296.447)" fill="#0a1250"/>
        <path id="Path_3294" data-name="Path 3294" d="M209.927,316.445l.981-.559-.56-.98-.982.559Z" transform="translate(-205.752 -304.49)" fill="#3b6eb1"/>
        <path id="Path_3295" data-name="Path 3295" d="M215.825,303.82l.981-.559-.56-.98-.982.559Z" transform="translate(-210.374 -294.596)" fill="#64ad22"/>
        <path id="Path_3296" data-name="Path 3296" d="M214.443,323l.982-.559-.56-.98-.982.559Z" transform="translate(-209.291 -309.625)" fill="#49aca0"/>
        <path id="Path_3297" data-name="Path 3297" d="M217.7,312l.982-.559-.56-.98-.982.559Z" transform="translate(-211.846 -301.008)" fill="#c2dc18"/>
        <path id="Path_3298" data-name="Path 3298" d="M221.055,319.606l.691-.393-.394-.689-.691.393Z" transform="translate(-214.602 -307.325)" fill="#a59f99"/>
        <path id="Path_3299" data-name="Path 3299" d="M225.8,310.611l.691-.393-.394-.689-.691.393Z" transform="translate(-218.323 -300.275)" fill="#64ad22"/>
        <rect id="Rectangle_2065" data-name="Rectangle 2065" width="1.806" height="1.809" transform="translate(4.64 4.586) rotate(-83.898)" fill="#64ad22"/>
        <rect id="Rectangle_2066" data-name="Rectangle 2066" width="1.449" height="1.452" transform="matrix(0.106, -0.994, 0.994, 0.106, 4.694, 7.015)" fill="#a59f99"/>
        <rect id="Rectangle_2067" data-name="Rectangle 2067" width="1.449" height="1.452" transform="matrix(0.106, -0.994, 0.994, 0.106, 7.382, 4.941)" fill="#49aca0"/>
        <rect id="Rectangle_2068" data-name="Rectangle 2068" width="1.128" height="1.13" transform="translate(7.024 6.881) rotate(-83.889)" fill="#c2dc18"/>
        <rect id="Rectangle_2069" data-name="Rectangle 2069" width="1.128" height="1.13" transform="translate(9.659 5.411) rotate(-83.908)" fill="#3b6eb1"/>
        <rect id="Rectangle_2070" data-name="Rectangle 2070" width="1.128" height="1.13" transform="translate(6.985 8.6) rotate(-83.887)" fill="#49aca0"/>
        <rect id="Rectangle_2071" data-name="Rectangle 2071" width="1.128" height="1.13" transform="translate(8.951 7.083) rotate(-83.887)" fill="#64ad22"/>
        <rect id="Rectangle_2072" data-name="Rectangle 2072" width="0.793" height="0.795" transform="translate(8.679 8.475) rotate(-83.892)" fill="#0a1250"/>
        <rect id="Rectangle_2073" data-name="Rectangle 2073" width="0.793" height="0.795" transform="translate(10.653 7.497) rotate(-83.928)" fill="#a59f99"/>
        <path id="Path_3300" data-name="Path 3300" d="M239.672,311.338a3.707,3.707,0,0,0-.718-.31,4.272,4.272,0,0,0-1.974-.144,4.773,4.773,0,0,0-.854.22l-.085.03a4.693,4.693,0,0,0-.452.2q-.193.1-.386.214a9.188,9.188,0,0,0-.86.59,18.438,18.438,0,0,1-.089-4.589.007.007,0,0,1,.011,0c.682.429.491,1.627.348,1.97,0,.007.007.012.012.006a2.114,2.114,0,0,0,.26-2.392c0-.006,0-.013.011-.008a1.934,1.934,0,0,1,.308.313,1.863,1.863,0,0,1,.386,1.018,3.043,3.043,0,0,1,0,.46c0,.036-.005.07-.008.1,0,.005,0,.007.008.005s0,0,0,0a1.963,1.963,0,0,0,0-1.792,2.244,2.244,0,0,0-.386-.528c-.048-.049-.1-.1-.154-.146a.007.007,0,0,1,.006-.012,1.5,1.5,0,0,1,.534.247,1.6,1.6,0,0,1,.538.724,1.828,1.828,0,0,1,.125.662.007.007,0,0,0,.013,0,1.648,1.648,0,0,0-.138-1.354,1.6,1.6,0,0,0-.538-.52,1.731,1.731,0,0,0-.386-.172,1.122,1.122,0,0,0-.185-.041c-.008,0-.006-.012,0-.013q.1-.008.183-.01a1.89,1.89,0,0,1,.386.031,1.4,1.4,0,0,1,.538.213,1.124,1.124,0,0,1,.361.386c0,.006.013,0,.013-.005a1.082,1.082,0,0,0-.374-.726,1.385,1.385,0,0,0-.538-.283,1.541,1.541,0,0,0-.386-.055,1.214,1.214,0,0,0-.482.086c-.006,0-.011,0-.008-.01a.909.909,0,0,1,.49-.346,1.108,1.108,0,0,1,.386-.046.861.861,0,0,1,.316.074.007.007,0,0,0,.007-.011,1.206,1.206,0,0,0-.324-.262,1.033,1.033,0,0,0-.386-.126.966.966,0,0,0-.929.46.007.007,0,0,1-.011,0c-.045-.08-.088-.169-.128-.262a3.1,3.1,0,0,1-.21-.7.006.006,0,0,0-.012,0,3.121,3.121,0,0,1-.212.7c-.04.092-.083.18-.127.258a.006.006,0,0,1-.011,0,.994.994,0,0,0-1.638-.072.007.007,0,0,0,.007.011,1.013,1.013,0,0,1,1.191.318.007.007,0,0,1-.008.01,1.417,1.417,0,0,0-1.529.378,1.079,1.079,0,0,0-.25.6c0,.007.01.011.013.005a1.055,1.055,0,0,1,.237-.291,1.561,1.561,0,0,1,1.23-.33c.008,0,.009.013,0,.013a1.627,1.627,0,0,0-1.232.985,1.765,1.765,0,0,0-.014,1.1.007.007,0,0,0,.013,0c0-.01,0-.02,0-.03a1.631,1.631,0,0,1,1.2-1.6.007.007,0,0,1,.006.012,2,2,0,0,0-.544,2.466.007.007,0,0,0,.013,0,2.024,2.024,0,0,1,.685-1.894c.006,0,.015,0,.011.008a2.115,2.115,0,0,0,.26,2.392c0,.006.015,0,.012-.006-.143-.343-.334-1.541.348-1.97a.007.007,0,0,1,.011,0,18.393,18.393,0,0,1-.089,4.589,6.975,6.975,0,0,0-1.7-1.005c-.071-.026-.14-.05-.209-.073a4.488,4.488,0,0,0-1.6-.228,4.147,4.147,0,0,0-1.656.419c-.064.032-.119.062-.161.086a.016.016,0,0,0,.014.029c.05-.016.1-.029.147-.043a4.581,4.581,0,0,1,1.656-.162,4.939,4.939,0,0,1,1.6.432,8.494,8.494,0,0,1,1.91,1.243,20.916,20.916,0,0,1-1.91,1.633l-.061.034a.447.447,0,0,0-.8.157.431.431,0,0,0,.087.385.642.642,0,0,0,.77.112,10.673,10.673,0,0,0,2.114-1.76c.071-.065.144-.131.217-.2q.11.1.216.2c.388.355.743.7,1.068,1,.134.121.262.234.386.334a3.382,3.382,0,0,0,.538.373.7.7,0,0,0,.854-.019.38.38,0,0,0,.127-.421.45.45,0,0,0-.335-.331.447.447,0,0,0-.461.174,1.623,1.623,0,0,1-.185-.113,6.328,6.328,0,0,1-.538-.434c-.121-.106-.25-.222-.386-.345-.264-.24-.554-.506-.863-.775a10.677,10.677,0,0,1,.863-.652q.189-.128.386-.246c.174-.1.354-.2.538-.288a5.492,5.492,0,0,1,.854-.327,4.514,4.514,0,0,1,1.974-.122,4.957,4.957,0,0,1,.7.165.016.016,0,0,0,.014-.029" transform="translate(-220.484 -296.324)" fill="#605e65"/>
      </g>
    </g>
  </g>
</svg>
